<?xml version="1.0" encoding="utf-8"?>
<!-- Generator: Adobe Illustrator 25.2.1, SVG Export Plug-In . SVG Version: 6.00 Build 0)  -->
<svg version="1.1" id="Capa_1" xmlns="http://www.w3.org/2000/svg" xmlns:xlink="http://www.w3.org/1999/xlink" x="0px" y="0px"
	 viewBox="0 0 431.7 345.8" style="enable-background:new 0 0 431.7 345.8;" xml:space="preserve">
<style type="text/css">
	.st0{fill:#3A5126;}
</style>
<g id="Capa_2_1_">
	<g id="Capa_1-2">
		<path class="st0" d="M235.8,181.6c-0.1,0.2-0.1,0.5-0.3,0.8c-0.4,0.7-1.1,0.9-1.8,0.6c-0.5-0.2-0.9-0.6-1.2-1.1
			c-0.1-0.2-0.2-0.4-0.4-0.6c-0.3-0.4-0.7-0.8-1.2-1c-0.7-0.2-1.3-0.6-1.9-0.9c-0.3-0.1-0.5-0.2-0.8-0.3c-0.7-0.2-1.3-0.5-2-0.7
			c-0.1-0.1-0.3-0.2-0.4-0.2c-0.5-0.3-1-0.5-1.6-0.8c-1-0.5-2.1-1-3.1-1.7c-0.4-0.3-0.8-0.4-1.2-0.7c-1.1-0.8-2.1-1.6-3.1-2.4
			c-0.5-0.5-1-1-1.5-1.5c-0.1-0.2-0.2-0.3-0.3-0.5c-0.2-0.3-0.3-0.6-0.5-0.8c0-0.1-0.1-0.1-0.1-0.2c-0.2-0.7-0.4-1.5-0.6-2.2
			c-0.1-0.3,0-0.7,0.1-1s0.2-0.6,0.2-0.9c0.1-0.6,0.3-1.1,0.8-1.5c0.4-0.3,0.6-0.7,1-1.1c0.3-0.3,0.6-0.5,0.9-0.6
			c0.2-0.1,0.3-0.1,0.5-0.2c0.4-0.2,0.9-0.3,1.3-0.2c0.6,0.1,1.2,0.2,1.8,0.3c0.2,0,0.4,0.1,0.6,0.2c0.2,0.1,0.4,0,0.4-0.2l0,0
			c0.1-0.1,0.1-0.2,0.1-0.4c0.1-0.6,0.5-1.1,0.8-1.6c0.1-0.2,0.2-0.3,0.3-0.5c0.3-0.6,0.7-1,1.2-1.4c0.4-0.3,0.9-0.6,1.3-0.9
			c0.3-0.2,0.7-0.2,1.1-0.1c0.2,0.1,0.3,0.1,0.5,0.1c0.9,0.1,1.5,0.6,2.1,1.2c0.2,0.2,0.3,0.5,0.4,0.8c0.1,0.3,0.3,0.7,0.6,0.9
			c0.6,0.7,0.9,1.6,1.1,2.4c0.1,0.3,0.2,0.7,0.4,1c0.2,0.4,0.3,0.7,0.3,1.1c0,0.4,0.1,0.9,0.2,1.3c0.5,1.6,0.8,3.3,1.1,5
			c0.2,0.9,0.4,1.8,0.7,2.7c0.1,0.4,0.1,0.8,0.2,1.3c0.1,0.3,0.1,0.7,0.2,1c0.1,0.4,0.2,0.7,0.3,1.1c0.1,0.3,0.3,0.6,0.4,0.9
			c0,0.1,0.1,0.1,0.1,0.1C235.4,179.1,235.7,180.2,235.8,181.6z M219.4,165.2c-1,0-1.6,0.9-1.4,1.7c0.1,0.6,0.2,1.2,0.3,1.8
			s0.4,1,0.9,1.3c0.4,0.2,0.7,0.5,1,0.9c0.5,0.7,1.2,1.1,1.9,1.6c0.6,0.4,1.3,0.7,1.9,1.1c0.1,0.1,0.2,0.1,0.3,0.1
			c0.2,0.1,0.4,0.2,0.6,0.3c0.2,0.1,0.3,0.2,0.5,0.3c0.6,0.2,1.3,0.4,1.8,0.8c0.1,0,0.2,0.1,0.3,0.1c0.8,0.3,1.6,0.5,2.3,1
			c0.2,0.1,0.4,0.2,0.6,0.3c0.3,0.1,0.5-0.1,0.4-0.4c-0.1-0.4-0.2-0.9-0.3-1.3c-0.4-1.5-0.9-3-0.9-4.6c0-0.4-0.1-0.8-0.3-1.2
			s-0.3-0.8-0.3-1.3c0-0.6-0.2-1.3-0.4-1.9c-0.2-0.4-0.3-0.8-0.5-1.2c-0.3-0.9-0.5-1.9-1.1-2.7c-0.1-0.2-0.2-0.4-0.5-0.4
			s-0.3,0.3-0.4,0.5c-0.3,0.8-0.5,1.6-0.6,2.4c-0.1,0.4,0,0.9,0.2,1.3c0.5,0.9,1,1.9,1.5,2.8c0.3,0.5,0.3,0.9-0.1,1.3
			c-0.1,0.2-0.3,0.3-0.5,0.5c-0.6,0.8-1.3,0.9-2.2,0.6c-0.6-0.2-0.9-0.6-1.2-1.1c-0.2-0.6-0.5-1.1-0.9-1.6c-0.5-0.8-1.1-1.5-1.7-2.2
			C220.4,165.5,219.9,165.3,219.4,165.2L219.4,165.2z"/>
		<path class="st0" d="M217,183.1c0,0.7-0.4,1.4-1,1.8c-0.7,0.5-1.3,1-2,1.5c-0.5,0.4-1.1,0.9-1.6,1.3c-0.2,0.1-0.4,0.3-0.5,0.4
			c-0.3,0.2-0.7,0.3-1,0.5c-0.7,0.4-1.4,0.4-2.1,0.1c-0.4-0.2-0.8-0.4-1-0.8c-0.1-0.3-0.2-0.6-0.1-0.9c0.2-0.9,0.8-1.7,1.5-2.2
			c0.3-0.2,0.6-0.4,0.9-0.6c0.7-0.5,1.2-1.1,1.8-1.6c0.5-0.4,1-0.8,1.6-1.2c0.3-0.2,0.7-0.2,1-0.1c0.3,0.1,0.6,0.1,0.9,0.2
			c0.2,0,0.5,0.1,0.7,0.2C216.8,182,217,182.4,217,183.1z"/>
		<path class="st0" d="M203.1,169.9c-0.3,0-0.7-0.1-1-0.1c-0.6-0.1-1.2-0.1-1.8-0.2c-0.9-0.2-1.8,0-2.7,0.1
			c-0.6,0.1-1.2-0.4-1.4-1.1c0-0.2-0.1-0.5-0.2-0.7c-0.3-0.4-0.2-0.8,0.1-1.2s0.7-0.7,1.3-0.8s1.1-0.2,1.7-0.1c0.2,0,0.4,0,0.6,0
			c0.6-0.1,1.2,0,1.8,0.1c0.1,0,0.3,0,0.4,0c0.9,0,1.7,0.2,2.5,0.6c0.5,0.2,0.8,0.6,0.9,1.1c0.3,0.9-0.4,1.9-1.2,2.1
			C203.9,169.7,203.5,169.8,203.1,169.9z"/>
		<path class="st0" d="M200.9,179.2c-0.6,0-1.1-0.2-1.6-0.4c-0.2-0.1-0.4-0.3-0.5-0.6c-0.2-0.5-0.2-0.9,0.1-1.4
			c0.4-0.8,1.1-1.2,1.9-1.4c0.3-0.1,0.5-0.2,0.8-0.3c0.2-0.1,0.3-0.2,0.5-0.2c0.5-0.2,1-0.3,1.4-0.6c0.1-0.1,0.3-0.1,0.5-0.2
			c0.3-0.1,0.6-0.2,0.8-0.3c0.6-0.3,1.3-0.2,1.8,0.3c0.2,0.2,0.3,0.4,0.5,0.6c0.4,0.5,0.4,1,0.2,1.5c-0.3,0.6-0.7,1.1-1.4,1.3
			c-0.4,0.1-0.8,0.4-1.3,0.5c-0.4,0.1-0.7,0.2-1,0.5l0,0c-0.6,0-1.1,0.4-1.7,0.6C201.6,179.1,201.3,179.2,200.9,179.2z"/>
	</g>
</g>
</svg>
