<?xml version="1.0" encoding="utf-8"?>
<!-- Generator: Adobe Illustrator 25.2.1, SVG Export Plug-In . SVG Version: 6.00 Build 0)  -->
<svg version="1.1" id="Capa_1" xmlns="http://www.w3.org/2000/svg" xmlns:xlink="http://www.w3.org/1999/xlink" x="0px" y="0px"
	 viewBox="0 0 382 410.1" style="enable-background:new 0 0 382 410.1;" xml:space="preserve">
<style type="text/css">
	.st0{fill:#3A5126;}
</style>
<g id="Capa_2_1_">
	<g id="Capa_1-2">
		<path class="st0" d="M193.9,212.9c-0.1,0-0.2,0.1-0.3,0.2c-0.3,0.1-0.6-0.1-0.7-0.3c-0.1-0.2-0.1-0.5,0-0.7c0-0.1,0.1-0.2,0.1-0.3
			c0-0.2,0-0.5-0.1-0.7c-0.1-0.3-0.2-0.6-0.3-0.8c0-0.1-0.1-0.2-0.2-0.3c-0.1-0.3-0.3-0.5-0.4-0.8c0-0.1,0-0.1-0.1-0.2
			c-0.1-0.2-0.2-0.5-0.3-0.7c-0.2-0.5-0.4-0.9-0.5-1.4c0-0.2-0.1-0.4-0.2-0.6c-0.1-0.5-0.2-1.1-0.3-1.7c0-0.3,0-0.6,0-0.9
			c0-0.1,0-0.2,0-0.3c0-0.1,0.1-0.3,0.1-0.4c0,0,0-0.1,0-0.1c0.1-0.3,0.3-0.6,0.4-0.9c0.1-0.1,0.2-0.2,0.3-0.3
			c0.1-0.1,0.2-0.1,0.3-0.2c0.2-0.1,0.4-0.2,0.7-0.2c0.2,0,0.4,0,0.6,0c0.2,0,0.3,0,0.5,0.1c0.1,0,0.1,0.1,0.2,0.1
			c0.2,0,0.4,0.2,0.5,0.3c0.2,0.2,0.3,0.4,0.5,0.6c0.1,0.1,0.1,0.2,0.2,0.2c0,0.1,0.1,0.1,0.2,0.1c0,0,0,0,0,0c0.1,0,0.1,0,0.1-0.1
			c0.2-0.1,0.5-0.2,0.7-0.3c0.1,0,0.2,0,0.2-0.1c0.3-0.1,0.5-0.1,0.8-0.1c0.2,0,0.4,0.1,0.7,0.1c0.2,0,0.3,0.1,0.4,0.3
			c0,0.1,0.1,0.1,0.1,0.2c0.2,0.3,0.3,0.6,0.3,1c0,0.1,0,0.3-0.1,0.4c-0.1,0.1-0.1,0.3-0.1,0.5c0,0.4-0.2,0.7-0.4,1.1
			c-0.1,0.1-0.1,0.3-0.2,0.4c0,0.2-0.1,0.3-0.2,0.4c-0.1,0.1-0.2,0.3-0.3,0.5c-0.3,0.6-0.7,1.2-1.1,1.8c-0.2,0.3-0.4,0.7-0.6,1
			c-0.1,0.2-0.2,0.3-0.3,0.5c-0.1,0.1-0.2,0.2-0.2,0.4c-0.1,0.1-0.2,0.3-0.2,0.4c-0.1,0.1-0.1,0.3-0.1,0.4c0,0,0,0.1,0,0.1
			C194.5,212,194.3,212.4,193.9,212.9z M193.5,203.1c-0.3-0.3-0.7-0.2-0.9,0.1c-0.1,0.2-0.3,0.4-0.4,0.7c-0.1,0.2-0.2,0.4-0.1,0.6
			c0.1,0.2,0.1,0.4,0,0.6c0,0.4,0.1,0.7,0.1,1c0.1,0.3,0.2,0.6,0.3,0.9c0,0,0,0.1,0.1,0.1c0,0.1,0.1,0.2,0.1,0.3
			c0,0.1,0,0.2,0.1,0.2c0.1,0.2,0.3,0.5,0.3,0.8c0,0,0,0.1,0.1,0.1c0.2,0.3,0.4,0.6,0.4,1c0,0.1,0.1,0.2,0.1,0.3
			c0.1,0.1,0.2,0.1,0.3,0c0.1-0.2,0.2-0.3,0.3-0.5c0.3-0.6,0.6-1.2,1.1-1.7c0.1-0.1,0.2-0.3,0.2-0.5c0.1-0.2,0.1-0.3,0.3-0.5
			c0.2-0.2,0.3-0.4,0.4-0.7c0.1-0.2,0.1-0.4,0.2-0.5c0.2-0.4,0.4-0.7,0.5-1.2c0-0.1,0.1-0.2,0-0.3c-0.1-0.1-0.2,0-0.3,0
			c-0.3,0.1-0.6,0.4-0.9,0.6c-0.1,0.1-0.2,0.3-0.3,0.5c-0.1,0.4-0.2,0.9-0.4,1.3c-0.1,0.2-0.2,0.3-0.4,0.4c-0.1,0-0.2,0-0.3,0
			c-0.4,0.1-0.7-0.1-0.9-0.5c-0.1-0.2-0.1-0.4,0-0.7c0.1-0.2,0.1-0.5,0.2-0.7c0.1-0.4,0.1-0.8,0.1-1.2
			C193.8,203.4,193.7,203.2,193.5,203.1z"/>
		<path class="st0" d="M187.8,207.5c-0.2,0.2-0.5,0.3-0.8,0.3c-0.3,0-0.7-0.1-1-0.1c-0.3,0-0.6,0-0.9-0.1c-0.1,0-0.2,0-0.3,0
			c-0.2,0-0.3-0.1-0.5-0.1c-0.3-0.1-0.5-0.3-0.7-0.6c-0.1-0.2-0.1-0.3-0.1-0.5c0-0.1,0.1-0.2,0.2-0.3c0.3-0.2,0.7-0.3,1.1-0.2
			c0.2,0,0.3,0.1,0.5,0.1c0.3,0,0.7,0,1,0c0.3,0,0.5,0,0.8,0.1c0.2,0,0.3,0.1,0.3,0.3c0.1,0.1,0.1,0.2,0.2,0.3
			c0.1,0.1,0.1,0.2,0.2,0.3C188,207,188,207.3,187.8,207.5z"/>
		<path class="st0" d="M187.3,200c-0.1-0.1-0.2-0.2-0.3-0.3c-0.2-0.2-0.3-0.4-0.5-0.6c-0.2-0.3-0.6-0.5-0.9-0.8
			c-0.2-0.2-0.3-0.5-0.1-0.7c0.1-0.1,0.1-0.2,0.1-0.3c0-0.2,0.2-0.3,0.4-0.3c0.2,0,0.4,0,0.6,0.1c0.2,0.1,0.4,0.3,0.6,0.5
			c0.1,0.1,0.1,0.1,0.2,0.2c0.2,0.2,0.4,0.4,0.5,0.6c0,0,0.1,0.1,0.1,0.1c0.3,0.3,0.5,0.6,0.6,0.9c0.1,0.2,0.1,0.4,0,0.6
			c-0.2,0.4-0.7,0.5-1,0.3C187.6,200.2,187.4,200.1,187.3,200z"/>
		<path class="st0" d="M183.9,202.3c-0.2-0.2-0.3-0.4-0.4-0.6c0-0.1,0-0.2,0-0.3c0.1-0.2,0.2-0.3,0.4-0.4c0.4-0.1,0.7-0.1,1,0.1
			c0.1,0.1,0.2,0.1,0.3,0.1c0.1,0,0.2,0.1,0.2,0.1c0.2,0.1,0.4,0.2,0.6,0.2c0.1,0,0.1,0.1,0.2,0.1c0.1,0.1,0.2,0.1,0.3,0.2
			c0.3,0.1,0.5,0.3,0.5,0.6c0,0.1,0,0.2,0,0.3c0,0.3-0.1,0.4-0.4,0.5c-0.3,0.1-0.5,0.1-0.8,0c-0.2-0.1-0.4-0.1-0.5-0.2
			c-0.1-0.1-0.3-0.1-0.5-0.1c0,0,0,0,0,0c-0.2-0.2-0.5-0.2-0.7-0.3C184.2,202.5,184,202.4,183.9,202.3z"/>
	</g>
</g>
</svg>
