<svg xmlns="http://www.w3.org/2000/svg" viewBox="0 0 77 77"><defs><style>.cls-1{stroke:darkolivegreen ;stroke-linecap:round;stroke-linejoin:round;stroke-width:2px;}</style></defs><g id="Capa_2" data-name="Capa 2"><g id="Capa_1-2" data-name="Capa 1"><path class="cls-1" d="M38.5,38.5A37.5,37.5,0,0,0,1,1V24.44A23.44,23.44,0,0,0,24.44,47.88,14.06,14.06,0,0,0,10.37,61.94V76A28.12,28.12,0,0,0,38.5,47.88h0A28.12,28.12,0,0,0,66.62,76V61.93a14.06,14.06,0,0,0-14.06-14A23.44,23.44,0,0,0,76,24.44V1A37.49,37.49,0,0,0,38.51,38.5Z"/></g></g></svg>