<svg xmlns="http://www.w3.org/2000/svg" xmlns:xlink="http://www.w3.org/1999/xlink" viewBox="0 0 210.47 272.78"><defs><style>.cls-1,.cls-2{fill:none;stroke-miterlimit:10;}.cls-1{stroke:#f2e593;stroke-width:3.99px;}.cls-2{stroke-width:5.82px;stroke:url(#Degradado_sin_nombre_36);}.cls-3{fill:url(#Degradado_sin_nombre_36-2);}.cls-4{fill:#f79f9f;}.cls-5{fill:#f2e593;}</style><radialGradient id="Degradado_sin_nombre_36" cx="129.9" cy="120.42" r="26.02" gradientUnits="userSpaceOnUse"><stop offset="0" stop-color="#ef8b85"/><stop offset="0.16" stop-color="#ef9086"/><stop offset="0.35" stop-color="#f0a088"/><stop offset="0.57" stop-color="#f1ba8c"/><stop offset="0.8" stop-color="#f2de92"/><stop offset="0.84" stop-color="#f2e593"/><stop offset="1" stop-color="#f2e593" stop-opacity="0"/></radialGradient><radialGradient id="Degradado_sin_nombre_36-2" cx="158.55" cy="76.43" r="51.64" xlink:href="#Degradado_sin_nombre_36"/></defs><g id="Capa_2" data-name="Capa 2"><g id="infog."><line class="cls-1" x1="158.97" x2="158.95" y2="240.4"/><circle class="cls-2" cx="129.9" cy="120.42" r="23.11"/><path class="cls-3" d="M194.09,35.33,166.3,71.9v.58l44.17-5.85v19.9L166.3,81v.87L194.39,117,176,127.48,158.11,86.53h-.59L138.8,127.78l-16.68-10.54,27.79-35.69v-.88l-43.29,5.86V66.63l43,5.56V71.6l-27.5-36L140,25.38l18.14,41h.58l17.85-41.25Z"/><path class="cls-4" d="M3.78,210.88a3.43,3.43,0,0,1-2.29-.72,2.31,2.31,0,0,1-.84-1.84,2,2,0,0,1,.72-1.62A2.42,2.42,0,0,1,3,206.09a2.84,2.84,0,0,1,1.51.38,3.44,3.44,0,0,1,1.08,1.1l.25.28q.8,1.08,1.59,0c.21-.36.46-.84.73-1.42s.6-1.38,1-2.36l-7-16.7a4.17,4.17,0,0,0-.54-1.1,2.2,2.2,0,0,0-.93-.71L0,185.28v-.36H9v.33l-.72.28q-.78.25-.81.81a4.06,4.06,0,0,0,.27,1.39l3.75,9.72L15,187.62a3.12,3.12,0,0,0,.22-1.38c-.05-.38-.35-.63-.9-.78l-.76-.18v-.36h5v.36l-.8.25a2.12,2.12,0,0,0-1.15.72,5.89,5.89,0,0,0-.61,1.3l-5.8,15.8A23.09,23.09,0,0,1,7.42,209,4.38,4.38,0,0,1,3.78,210.88Z"/><path class="cls-4" d="M27.94,202.78a9.53,9.53,0,0,1-4.76-1.14,7.73,7.73,0,0,1-3.11-3.22,10.38,10.38,0,0,1-1.1-4.89,9.61,9.61,0,0,1,1.17-4.86,8.09,8.09,0,0,1,3.21-3.17,9.29,9.29,0,0,1,4.59-1.12,9.45,9.45,0,0,1,4.57,1.1,8,8,0,0,1,3.18,3.15,9.74,9.74,0,0,1,1.17,4.9,10.37,10.37,0,0,1-1.09,4.91,7.84,7.84,0,0,1-3.1,3.2A9.38,9.38,0,0,1,27.94,202.78Zm0-.72a2.78,2.78,0,0,0,2-.72,4.67,4.67,0,0,0,1.1-2.56,29.81,29.81,0,0,0,.34-5.18,30.1,30.1,0,0,0-.34-5.22,4.67,4.67,0,0,0-1.1-2.56,2.78,2.78,0,0,0-2-.72,2.89,2.89,0,0,0-2,.72,4.6,4.6,0,0,0-1.11,2.56,38.8,38.8,0,0,0,0,10.4,4.6,4.6,0,0,0,1.11,2.56A2.89,2.89,0,0,0,27.94,202.06Z"/><path class="cls-4" d="M44.82,202.78a6,6,0,0,1-2.57-.54,3.94,3.94,0,0,1-1.84-1.75,6.39,6.39,0,0,1-.63-3.18l.11-9.26a1.91,1.91,0,0,0-.29-1.18,1.58,1.58,0,0,0-.9-.51l-.43-.14v-.36l6.44-1.26.36.36-.18,5.11v8.68a2,2,0,0,0,.67,1.69,2.56,2.56,0,0,0,1.67.54,5.31,5.31,0,0,0,1.8-.29,6.54,6.54,0,0,0,1.59-.86l.14-11.74a2,2,0,0,0-.25-1.17,1.52,1.52,0,0,0-.94-.49l-.36-.1V186l6.3-1.37.36.36-.11,5.11v9.76a2.86,2.86,0,0,0,.22,1.22,1.66,1.66,0,0,0,.94.72l.36.11v.36l-6.3.36-.33-2.13a12.59,12.59,0,0,1-2.57,1.64A7.38,7.38,0,0,1,44.82,202.78Z"/><path class="cls-4" d="M58.72,202.24v-.36l.54-.15a1.64,1.64,0,0,0,1-.64,2.09,2.09,0,0,0,.27-1.12V188.7a2,2,0,0,0-.27-1.17,1.56,1.56,0,0,0-1-.52l-.54-.14v-.36l6.19-2.09.36.36.32,3.1v.28a7.64,7.64,0,0,1,1.32-1.85,7.49,7.49,0,0,1,1.8-1.39,4.06,4.06,0,0,1,2-.54,2.74,2.74,0,0,1,2.09.76,2.65,2.65,0,0,1,.72,1.91,2.5,2.5,0,0,1-.71,1.89,2.33,2.33,0,0,1-1.67.66,3.29,3.29,0,0,1-2.66-1.51l-.08-.07a1.19,1.19,0,0,0-.82-.56,1,1,0,0,0-.87.45,2.63,2.63,0,0,0-.59.77,9.08,9.08,0,0,0-.45,1v10a1.67,1.67,0,0,0,1.26,1.8l1.15.33v.36Z"/><path class="cls-4" d="M8,169.78a6.07,6.07,0,0,1-2.57-.54,4,4,0,0,1-1.84-1.75,6.39,6.39,0,0,1-.63-3.18l.11-9.26a1.84,1.84,0,0,0-.29-1.18,1.58,1.58,0,0,0-.9-.51l-.43-.14v-.36l6.45-1.26.36.36-.18,5.11v8.68a2.07,2.07,0,0,0,.66,1.69,2.59,2.59,0,0,0,1.68.54,5.31,5.31,0,0,0,1.8-.29,6.67,6.67,0,0,0,1.58-.86l.14-11.74a2,2,0,0,0-.25-1.17,1.52,1.52,0,0,0-.93-.49l-.36-.1V153l6.3-1.37L19,152l-.11,5.11v9.76a2.88,2.88,0,0,0,.21,1.22,1.7,1.7,0,0,0,.94.72l.36.11v.36l-6.3.36-.32-2.13a12.66,12.66,0,0,1-2.58,1.64A7.35,7.35,0,0,1,8,169.78Z"/><path class="cls-4" d="M21.63,177.52v-.36l.43-.15a1.62,1.62,0,0,0,1.33-1.72V155.7a2.14,2.14,0,0,0-.27-1.19,1.52,1.52,0,0,0-1-.54l-.5-.1v-.36l6.12-2.09.36.36.32,1.11a10.5,10.5,0,0,1,2.65-1.11,11.13,11.13,0,0,1,3-.4A5.89,5.89,0,0,1,39,153.74q1.81,2.35,1.82,6.75a10.6,10.6,0,0,1-2,6.81,6.83,6.83,0,0,1-5.64,2.48A12.22,12.22,0,0,1,28.4,169v6.23a1.67,1.67,0,0,0,1.29,1.8l.69.18v.36Zm9.83-8.79a3.2,3.2,0,0,0,2.86-1.87q1.07-1.86,1.06-6.23t-1-6.1a3.18,3.18,0,0,0-2.91-1.74,6.34,6.34,0,0,0-3,.86v14.51A7.65,7.65,0,0,0,31.46,168.73Z"/><path class="cls-4" d="M50.28,163a9.58,9.58,0,0,1-4.21-.83v1.23a1.24,1.24,0,0,0,1.12,1.33L54,166a18.83,18.83,0,0,1,3.06.84,5.35,5.35,0,0,1,2.19,1.48,3.87,3.87,0,0,1,.83,2.61,5.21,5.21,0,0,1-1.15,3.26,8,8,0,0,1-3.4,2.41,14.94,14.94,0,0,1-5.6.92,14,14,0,0,1-4.57-.6,4.89,4.89,0,0,1-2.4-1.53,3.21,3.21,0,0,1-.7-2,4.67,4.67,0,0,1,.88-2.61,7.15,7.15,0,0,1,2.18-2.1,3.56,3.56,0,0,1-1.62-1.12,2.4,2.4,0,0,1-.5-1.47,2.59,2.59,0,0,1,.37-1.35,11,11,0,0,1,.92-1.28L45.64,162A5.1,5.1,0,0,1,43,157.21,5.33,5.33,0,0,1,44.87,153a8,8,0,0,1,5.45-1.62,11.11,11.11,0,0,1,3.22.43A6.18,6.18,0,0,1,55.83,153a9.74,9.74,0,0,0,2.18-.6,6.39,6.39,0,0,0,1.85-1.13l.5.36v1.84H56.3a5.76,5.76,0,0,1-.56,7.86A8,8,0,0,1,50.28,163Zm-5.4,9.25a3.91,3.91,0,0,0,1.32,3.21,6.5,6.5,0,0,0,4.16,1.08,8.4,8.4,0,0,0,4.5-1,3.08,3.08,0,0,0,1.51-2.73,2,2,0,0,0-.74-1.62,5.64,5.64,0,0,0-2.5-.94l-6.52-1.22-.57-.15a6.48,6.48,0,0,0-.83,1.64A5.06,5.06,0,0,0,44.88,172.26Zm5.37-10a2.23,2.23,0,0,0,2.1-1.19,8.5,8.5,0,0,0,.67-4,8.14,8.14,0,0,0-.67-3.9,2.35,2.35,0,0,0-4.05,0,8.39,8.39,0,0,0-.68,3.94,8.81,8.81,0,0,0,.63,3.93A2.12,2.12,0,0,0,50.25,162.29Z"/><path class="cls-4" d="M61.55,169.24v-.36l.54-.15a1.64,1.64,0,0,0,1-.64,2.09,2.09,0,0,0,.27-1.12V155.7a2,2,0,0,0-.27-1.17,1.56,1.56,0,0,0-1-.52l-.54-.14v-.36l6.19-2.09.36.36.33,3.1v.28a7.33,7.33,0,0,1,1.31-1.85,7.49,7.49,0,0,1,1.8-1.39,4.09,4.09,0,0,1,2-.54,2.72,2.72,0,0,1,2.09.76,2.65,2.65,0,0,1,.72,1.91,2.49,2.49,0,0,1-.7,1.89,2.37,2.37,0,0,1-1.67.66,3.32,3.32,0,0,1-2.67-1.51L71.2,155a1.21,1.21,0,0,0-.83-.56,1,1,0,0,0-.86.45,2.85,2.85,0,0,0-.6.77c-.15.31-.3.65-.45,1v10a1.67,1.67,0,0,0,1.26,1.8l1.16.33v.36Z"/><path class="cls-4" d="M81.93,169.78a5.31,5.31,0,0,1-3.51-1.19A4.19,4.19,0,0,1,77,165.17a4,4,0,0,1,1.72-3.11,12.37,12.37,0,0,1,5.44-2.15l1.3-.23,1.51-.27v-2.84a7.07,7.07,0,0,0-.6-3.44,2,2,0,0,0-1.85-1,1.76,1.76,0,0,0-1.37.56,3.49,3.49,0,0,0-.65,1.92l-.07.4a3.5,3.5,0,0,1-.75,2.27A2.25,2.25,0,0,1,80,158a2.16,2.16,0,0,1-1.54-.58,2,2,0,0,1-.62-1.55,3.36,3.36,0,0,1,1-2.48,6.33,6.33,0,0,1,2.72-1.51,12.67,12.67,0,0,1,3.67-.51,7.12,7.12,0,0,1,5,1.57c1.16,1,1.75,2.74,1.75,5.09v8c0,1.08.5,1.62,1.51,1.62h.79l.32.29a5.28,5.28,0,0,1-1.49,1.33,4.63,4.63,0,0,1-2.29.47,3.9,3.9,0,0,1-2.5-.74,3.45,3.45,0,0,1-1.2-2,15.3,15.3,0,0,1-2.22,2A4.91,4.91,0,0,1,81.93,169.78Zm2.19-2.2a2.76,2.76,0,0,0,1.35-.34,10,10,0,0,0,1.5-1.06v-6.05l-.72.14-.83.15a5.52,5.52,0,0,0-2.65,1.46,3.79,3.79,0,0,0-1,2.75,3.11,3.11,0,0,0,.69,2.21A2.14,2.14,0,0,0,84.12,167.58Z"/><path class="cls-4" d="M103,169.78a7.57,7.57,0,0,1-3.81-1,6.63,6.63,0,0,1-2.69-2.95,11.55,11.55,0,0,1-1-5.13,10.9,10.9,0,0,1,1.12-5.24,7.53,7.53,0,0,1,3-3.09,8,8,0,0,1,4-1,11.79,11.79,0,0,1,2.41.25,7.32,7.32,0,0,1,2,.76v-4.68a2.2,2.2,0,0,0-.23-1.12,1.49,1.49,0,0,0-1-.5l-.69-.14v-.36l6.56-1.59.39.33-.14,5V167a2.36,2.36,0,0,0,.25,1.17,1.42,1.42,0,0,0,.94.63l.32.11v.36l-6.16.39-.32-1.29a8.87,8.87,0,0,1-5,1.44Zm2.09-1.33a4.65,4.65,0,0,0,2.77-.9v-14.3a5,5,0,0,0-2.73-.86,3.51,3.51,0,0,0-3,2q-1.22,2-1.22,6.28t1.15,6A3.46,3.46,0,0,0,105,168.45Z"/><path class="cls-4" d="M125,151.38a7.81,7.81,0,0,1,4,1,6.46,6.46,0,0,1,2.54,2.59,7.69,7.69,0,0,1,.88,3.72q0,.4,0,.81a3,3,0,0,1-.15.74H121.53c0,2.6.48,4.46,1.38,5.6a4.81,4.81,0,0,0,4,1.71,6.25,6.25,0,0,0,2.91-.58,6.92,6.92,0,0,0,2.09-1.69l.36.33a8.17,8.17,0,0,1-3,3.09,8.42,8.42,0,0,1-4.44,1.12,9.22,9.22,0,0,1-4.54-1.1,7.77,7.77,0,0,1-3.1-3.15,10.16,10.16,0,0,1-1.11-4.9,9.32,9.32,0,0,1,1.29-5,8.8,8.8,0,0,1,3.33-3.15A9,9,0,0,1,125,151.38Zm-.11.72a2.64,2.64,0,0,0-1.78.63A4.3,4.3,0,0,0,122,155a19.62,19.62,0,0,0-.45,4.52h6.15a13.8,13.8,0,0,0-.29-5.65A2.45,2.45,0,0,0,124.91,152.1Z"/><path class="cls-5" d="M85.85,272.35,80.3,257.12a2.57,2.57,0,0,0-1.58-1.62l-.61-.22v-.36h8.82v.36l-.54.15c-.94.28-1.25.86-.94,1.72l3.35,10.19,3-7.92-.69-2.05a4.88,4.88,0,0,0-.52-1.21,1.54,1.54,0,0,0-.7-.59l-.61-.29v-.36h7.45v.36l-.5.22a1,1,0,0,0-.65.57,1.88,1.88,0,0,0,.14,1.08l3.31,10,3.42-9.93c.34-.92.16-1.49-.54-1.73l-.79-.22v-.36h4.32v.36l-.86.25a1.64,1.64,0,0,0-.88.56,3.81,3.81,0,0,0-.49,1L98,272.35H96.18l-4-11.78-4.24,11.78Z"/><path class="cls-5" d="M106.66,272.24v-.36l.5-.15a1.64,1.64,0,0,0,1-.64,2.16,2.16,0,0,0,.27-1.16V258.67a2,2,0,0,0-.27-1.14,1.56,1.56,0,0,0-1-.52l-.5-.11v-.36l6.58-2.12.36.36-.1,5.11V270a2.13,2.13,0,0,0,.27,1.15,1.61,1.61,0,0,0,1,.65l.36.11v.36Zm4.24-19.73a3,3,0,0,1-2.07-.77,2.56,2.56,0,0,1-.84-2,2.52,2.52,0,0,1,.84-2,3,3,0,0,1,2.07-.76,2.93,2.93,0,0,1,2.06.76,2.54,2.54,0,0,1,.82,2,2.58,2.58,0,0,1-.82,2A2.94,2.94,0,0,1,110.9,252.51Z"/><path class="cls-5" d="M123.5,272.78a5.2,5.2,0,0,1-3.58-1.15,4.75,4.75,0,0,1-1.28-3.68V255.64h-2.48v-.36l.86-.14a6.93,6.93,0,0,0,1.93-.72,7.74,7.74,0,0,0,1.6-1.26l3-3.28h.36l-.1,5h4v.72h-4.07v13a2.86,2.86,0,0,0,.56,1.91,1.79,1.79,0,0,0,1.42.65,2.38,2.38,0,0,0,1.33-.38,5.37,5.37,0,0,0,1.15-1l.36.36a5.29,5.29,0,0,1-2,1.95A6.08,6.08,0,0,1,123.5,272.78Z"/><path class="cls-5" d="M129.77,272.24v-.36l.43-.15a1.73,1.73,0,0,0,1.3-1.8V250.71a2,2,0,0,0-.26-1.12,1.59,1.59,0,0,0-1-.54l-.54-.14v-.36l6.34-1.55.57.33-.14,5.07v4.5a14.81,14.81,0,0,1,2.72-1.78,7,7,0,0,1,3.22-.74,5.2,5.2,0,0,1,3.73,1.33,5.49,5.49,0,0,1,1.38,4.11V270a2,2,0,0,0,.29,1.15,1.74,1.74,0,0,0,1,.65l.29.11v.36h-8.43v-.36l.43-.11a1.76,1.76,0,0,0,1.3-1.84v-11.3a3,3,0,0,0-.49-2,2.22,2.22,0,0,0-1.71-.54,5.41,5.41,0,0,0-1.72.31,6.12,6.12,0,0,0-1.91,1.06V270a1.71,1.71,0,0,0,1.29,1.8l.29.07v.36Z"/><path class="cls-5" d="M158.39,272.24v-.36l.5-.15a1.46,1.46,0,0,0,1-.61,2.31,2.31,0,0,0,.31-1.15V258.7a2.12,2.12,0,0,0-.25-1.17,1.48,1.48,0,0,0-1-.52l-.54-.14v-.36l6.15-2.09.36.36.29,2.45a11.39,11.39,0,0,1,2.72-2,6.62,6.62,0,0,1,3.18-.83,4.89,4.89,0,0,1,2.78.71,4.28,4.28,0,0,1,1.58,2.17,11.75,11.75,0,0,1,3-2.1,7.4,7.4,0,0,1,3.19-.78,5.07,5.07,0,0,1,3.76,1.23,5.32,5.32,0,0,1,1.21,3.85V270a1.65,1.65,0,0,0,1.29,1.76l.4.11v.36H180v-.36l.36-.11a1.63,1.63,0,0,0,1-.65,2.13,2.13,0,0,0,.27-1.15V259a3,3,0,0,0-.54-2.07,2.33,2.33,0,0,0-1.73-.55,4.17,4.17,0,0,0-1.82.41,8.42,8.42,0,0,0-1.85,1.24,5.52,5.52,0,0,1,.23,1.26q.06.69.06,1.44V270a1.68,1.68,0,0,0,1.29,1.76l.33.11v.36h-8.36v-.36l.51-.15a1.66,1.66,0,0,0,1-.63A2,2,0,0,0,171,270V259a3.16,3.16,0,0,0-.52-2.05,2.23,2.23,0,0,0-1.78-.61,3.6,3.6,0,0,0-1.66.41,8.43,8.43,0,0,0-1.73,1.21V270a1.64,1.64,0,0,0,1.26,1.76l.33.11v.36Z"/><path class="cls-5" d="M198.78,254.38a7.81,7.81,0,0,1,4,1,6.46,6.46,0,0,1,2.54,2.59,7.69,7.69,0,0,1,.88,3.72q0,.41,0,.81a3,3,0,0,1-.15.74H195.29c0,2.6.48,4.46,1.38,5.6a4.81,4.81,0,0,0,4,1.71,6.25,6.25,0,0,0,2.91-.58,7,7,0,0,0,2.09-1.69l.36.33a8.17,8.17,0,0,1-3,3.09,8.43,8.43,0,0,1-4.45,1.12,9.21,9.21,0,0,1-4.53-1.1,7.77,7.77,0,0,1-3.1-3.15,10.16,10.16,0,0,1-1.11-4.9,9.32,9.32,0,0,1,1.29-5,8.8,8.8,0,0,1,3.33-3.15A9,9,0,0,1,198.78,254.38Zm-.11.72a2.64,2.64,0,0,0-1.78.63,4.3,4.3,0,0,0-1.15,2.23,19.62,19.62,0,0,0-.45,4.52h6.15a13.8,13.8,0,0,0-.29-5.65A2.45,2.45,0,0,0,198.67,255.1Z"/><path class="cls-4" d="M8.1,235.78a7.61,7.61,0,0,1-3.82-1,6.67,6.67,0,0,1-2.68-2.95,11.55,11.55,0,0,1-1-5.13,10.9,10.9,0,0,1,1.12-5.24,7.53,7.53,0,0,1,2.95-3.09,8,8,0,0,1,4-1,11.79,11.79,0,0,1,2.41.25,7.32,7.32,0,0,1,2.05.76v-4.68a2.2,2.2,0,0,0-.23-1.12,1.49,1.49,0,0,0-1-.5l-.69-.14v-.36L17.78,210l.4.33-.14,5V233a2.36,2.36,0,0,0,.25,1.17,1.42,1.42,0,0,0,.93.63l.33.11v.36l-6.16.39-.32-1.29a8.94,8.94,0,0,1-5,1.44Zm2.09-1.33a4.65,4.65,0,0,0,2.77-.9v-14.3a5,5,0,0,0-2.74-.86,3.51,3.51,0,0,0-3,2q-1.21,2-1.22,6.28t1.15,6A3.45,3.45,0,0,0,10.19,234.45Z"/><path class="cls-4" d="M30.17,217.38a7.81,7.81,0,0,1,4,1,6.46,6.46,0,0,1,2.54,2.59,7.69,7.69,0,0,1,.88,3.72q0,.4,0,.81a3,3,0,0,1-.15.74H26.68c0,2.6.48,4.46,1.38,5.6a4.81,4.81,0,0,0,4,1.71,6.25,6.25,0,0,0,2.91-.58,6.92,6.92,0,0,0,2.09-1.69l.36.33a8.17,8.17,0,0,1-3,3.09A8.43,8.43,0,0,1,30,235.78a9.21,9.21,0,0,1-4.53-1.1,7.77,7.77,0,0,1-3.1-3.15,10.16,10.16,0,0,1-1.11-4.9,9.32,9.32,0,0,1,1.29-5,8.8,8.8,0,0,1,3.33-3.15A9,9,0,0,1,30.17,217.38Zm-.11.72a2.64,2.64,0,0,0-1.78.63A4.3,4.3,0,0,0,27.13,221a19.62,19.62,0,0,0-.45,4.52h6.15a13.8,13.8,0,0,0-.29-5.65A2.45,2.45,0,0,0,30.06,218.1Z"/><path class="cls-4" d="M45.61,235.78a11.11,11.11,0,0,1-3.17-.42,14.25,14.25,0,0,1-2.59-1l0-4.29h.36l1.22,2.16a6.52,6.52,0,0,0,1.75,2.15,4,4,0,0,0,2.43.7,4.61,4.61,0,0,0,2.79-.78,2.44,2.44,0,0,0,1.06-2.07,2.6,2.6,0,0,0-.76-1.94,6.93,6.93,0,0,0-2.8-1.37l-1.52-.47a7.43,7.43,0,0,1-3.45-2,4.76,4.76,0,0,1-1.26-3.35,5.17,5.17,0,0,1,1.87-4,7.82,7.82,0,0,1,5.36-1.66,11.26,11.26,0,0,1,2.65.31,10.09,10.09,0,0,1,2.39.92l-.21,3.88h-.36l-1.26-2.23a5.45,5.45,0,0,0-1.35-1.67,3.35,3.35,0,0,0-2-.49,4.16,4.16,0,0,0-2.3.69,2.16,2.16,0,0,0-1.08,1.94,2.33,2.33,0,0,0,.91,1.94A9.27,9.27,0,0,0,47.05,224l1.62.46a7.48,7.48,0,0,1,3.71,2.18A5.19,5.19,0,0,1,53.5,230a5.06,5.06,0,0,1-2.07,4.21A9.39,9.39,0,0,1,45.61,235.78Z"/><path class="cls-4" d="M55,235.24v-.36l.51-.15a1.64,1.64,0,0,0,1-.64,2.16,2.16,0,0,0,.27-1.16V221.67a2,2,0,0,0-.27-1.14,1.56,1.56,0,0,0-1-.52L55,219.9v-.36l6.59-2.12.36.36-.11,5.11V233a2.13,2.13,0,0,0,.27,1.15,1.63,1.63,0,0,0,1,.65l.36.11v.36Zm4.25-19.73a3,3,0,0,1-2.07-.77,2.56,2.56,0,0,1-.84-2,2.52,2.52,0,0,1,.84-2,3,3,0,0,1,2.07-.76,2.89,2.89,0,0,1,2.05.76,2.51,2.51,0,0,1,.83,2,2.55,2.55,0,0,1-.83,2A2.9,2.9,0,0,1,59.29,215.51Z"/><path class="cls-4" d="M72.9,229a9.55,9.55,0,0,1-4.21-.83v1.23a1.23,1.23,0,0,0,1.11,1.33L76.57,232a18.28,18.28,0,0,1,3.06.84,5.38,5.38,0,0,1,2.2,1.48,3.87,3.87,0,0,1,.83,2.61,5.22,5.22,0,0,1-1.16,3.26,8,8,0,0,1-3.4,2.41,14.9,14.9,0,0,1-5.6.92,14.07,14.07,0,0,1-4.57-.6,4.81,4.81,0,0,1-2.39-1.53,3.23,3.23,0,0,1-.71-2,4.68,4.68,0,0,1,.89-2.61,6.93,6.93,0,0,1,2.18-2.1,3.46,3.46,0,0,1-1.62-1.12,2.41,2.41,0,0,1-.51-1.47,2.6,2.6,0,0,1,.38-1.35,9.93,9.93,0,0,1,.92-1.28L68.25,228a5.09,5.09,0,0,1-2.62-4.76A5.35,5.35,0,0,1,67.48,219a8.09,8.09,0,0,1,5.46-1.62,11.16,11.16,0,0,1,3.22.43A6.21,6.21,0,0,1,78.44,219a9.6,9.6,0,0,0,2.18-.6,6.44,6.44,0,0,0,1.86-1.13l.5.36v1.84H78.91a5.73,5.73,0,0,1-.56,7.86A8,8,0,0,1,72.9,229Zm-5.4,9.25a3.93,3.93,0,0,0,1.31,3.21A6.54,6.54,0,0,0,73,242.55a8.4,8.4,0,0,0,4.5-1A3.06,3.06,0,0,0,79,238.84a2,2,0,0,0-.73-1.62,5.69,5.69,0,0,0-2.51-.94l-6.51-1.22-.58-.15a6.82,6.82,0,0,0-.83,1.64A5.29,5.29,0,0,0,67.5,238.26Zm5.36-10A2.25,2.25,0,0,0,75,227.1a8.64,8.64,0,0,0,.67-4,8.26,8.26,0,0,0-.67-3.9,2.35,2.35,0,0,0-4,0,8.26,8.26,0,0,0-.68,3.94,8.81,8.81,0,0,0,.63,3.93A2.1,2.1,0,0,0,72.86,228.29Z"/><path class="cls-4" d="M84.17,235.24v-.36l.5-.15A1.63,1.63,0,0,0,85.93,233V221.7a2.12,2.12,0,0,0-.25-1.17,1.48,1.48,0,0,0-1-.52l-.54-.14v-.36l6.15-2.09.36.36.29,2.16a11.42,11.42,0,0,1,2.85-1.84,7.5,7.5,0,0,1,3.13-.72,4.88,4.88,0,0,1,3.65,1.3,5.43,5.43,0,0,1,1.28,4V233a1.66,1.66,0,0,0,1.37,1.76l.32.11v.36H95.08v-.36l.46-.15A1.67,1.67,0,0,0,96.8,233V221.49a2,2,0,0,0-2.3-2.31A5.56,5.56,0,0,0,91,220.77V233a1.64,1.64,0,0,0,1.26,1.76l.33.11v.36Z"/></g></g></svg>