<svg xmlns="http://www.w3.org/2000/svg" xmlns:xlink="http://www.w3.org/1999/xlink" viewBox="0 0 543.11 1326.38"><defs><style>.cls-1{fill:url(#Degradado_sin_nombre_36);}.cls-2,.cls-3{fill:none;stroke-miterlimit:10;}.cls-2{stroke:#f3e694;stroke-width:3.99px;}.cls-3{stroke-width:29.64px;stroke:url(#Degradado_sin_nombre_36-2);}.cls-4{fill:url(#Degradado_sin_nombre_36-3);}</style><radialGradient id="Degradado_sin_nombre_36" cx="226.57" cy="1094.7" r="51.64" gradientUnits="userSpaceOnUse"><stop offset="0" stop-color="#f08c86"/><stop offset="0.16" stop-color="#f09187"/><stop offset="0.35" stop-color="#f1a189"/><stop offset="0.57" stop-color="#f2bb8d"/><stop offset="0.8" stop-color="#f3df93"/><stop offset="0.84" stop-color="#f3e694"/><stop offset="1" stop-color="#f3e694" stop-opacity="0"/></radialGradient><radialGradient id="Degradado_sin_nombre_36-2" cx="132.58" cy="860.51" r="132.58" xlink:href="#Degradado_sin_nombre_36"/><radialGradient id="Degradado_sin_nombre_36-3" cx="278.53" cy="636.4" r="263.1" xlink:href="#Degradado_sin_nombre_36"/></defs><g id="Capa_2" data-name="Capa 2"><g id="infog."><path class="cls-1" d="M262.12,1053.59l-27.79,36.57v.59l44.17-5.85v19.89l-44.17-5.56v.88l28.08,35.11L244,1145.75l-17.84-41h-.59L206.83,1146l-16.68-10.53,27.79-35.69v-.88l-43.3,5.85V1084.9l43,5.56v-.59l-27.5-36L208,1043.65l18.14,41h.58l17.85-41.26Z"/><line class="cls-2" x1="198.96" x2="198.96" y2="1326.38"/><circle class="cls-3" cx="132.58" cy="860.51" r="117.76"/><path class="cls-4" d="M459.64,427,318,613.3v3l225.08-29.81V687.83L318,659.51V664L461.14,842.86l-93.92,53.66L276.3,687.83h-3L177.92,898,93,844.35l141.6-181.86V658L13.94,687.83V586.47l219.13,28.32v-3L93,428.46l90.92-52.17L276.3,585h3L370.2,374.79Z"/></g></g></svg>