<?xml version="1.0" encoding="utf-8"?>
<!-- Generator: Adobe Illustrator 25.2.1, SVG Export Plug-In . SVG Version: 6.00 Build 0)  -->
<svg version="1.1" id="Calque_1" xmlns="http://www.w3.org/2000/svg" xmlns:xlink="http://www.w3.org/1999/xlink" x="0px" y="0px"
	 viewBox="0 0 16 16" style="enable-background:new 0 0 16 16;" xml:space="preserve">
<style type="text/css">
	.st0{fill:#FFFAF0;}
	.st1{fill:#3A5126;}
</style>
<circle id="background" class="st0" cx="8" cy="8" r="8"/>
<path id="behance" class="st1" d="M5.7,4.4c0.3,0,0.7,0,0.9,0.1s0.5,0.2,0.7,0.3c0.2,0.1,0.4,0.3,0.5,0.6S8,5.8,8,6.2
	c0,0.4-0.1,0.7-0.2,0.9S7.3,7.5,7,7.7C7.4,7.8,7.8,8,8,8.4c0.2,0.3,0.3,0.7,0.3,1.2c0,0.4-0.1,0.7-0.2,0.9C8,10.7,7.8,11,7.5,11.1c-0.2,0.2-0.5,0.3-0.8,0.4c-0.3,0.1-0.6,0.1-0.9,0.1H2.2V4.4H5.7z M5.4,7.3c0.3,0,0.5-0.1,0.7-0.2C6.3,7,6.4,6.8,6.4,6.4c0-0.2,0-0.3-0.1-.4S6.2,5.8,6.1,5.8C6,5.7,5.9,5.7,5.7,5.6c-0.1,0-0.3,0-0.4,0H3.8v1.7C3.8,7.3,5.4,7.3,5.4,7.3z M5.5,10.4c0.2,0,0.3,0,0.4,0c0.1,0,0.3-0.1,0.4-0.2c0.1-0.1,0.2-0.2,0.3-0.3c0.1-0.1,0.1-0.3,0.1-0.5c0-0.4-0.1-0.6-0.3-0.8C6.2,8.5,5.9,8.4,5.6,8.4H3.8v2C3.8,10.4,5.5,10.4,5.5,10.4z M10.3,10.2c0.2,0.2,0.5,0.3,0.9,0.3c0.3,0,0.5-0.1,0.8-0.2s0.3-0.3,0.4-0.5h1.3c-0.2,0.6-0.5,1.1-0.9,1.4c-0.4,0.3-0.9,0.4-1.5,0.4c-0.4,0-0.8-0.1-1.1-0.2s-0.6-0.3-0.8-0.6C9,10.6,8.8,10.3,8.7,10C8.6,9.7,8.5,9.3,8.5,8.9c0-0.4,0.1-0.8,0.2-1.1C8.8,7.4,9,7.1,9.3,6.9s0.5-0.4,0.8-0.6c0.3-0.1,0.7-0.2,1.1-0.2c0.4,0,0.8,0.1,1.2,0.3c0.3,0.2,0.6,0.4,0.8,0.7c0.2,0.3,0.4,0.6,0.5,1c0.1,0.4,0.1,0.8,0.1,1.2H10C10,9.7,10.1,10,10.3,10.2z M11.9,7.5c-0.2-0.2-0.4-0.3-0.8-0.3c-0.2,0-0.4,0-0.6,0.1c-0.2,0.1-0.3,0.2-0.4,0.3C10.1,7.7,10.1,7.8,10,8C10,8.1,10,8.2,10,8.3h2.3C12.2,7.9,12.1,7.7,11.9,7.5z M9.7,4.7h2.9v0.8H9.7V4.7z"/>
</svg>
