<svg xmlns="http://www.w3.org/2000/svg" viewBox="0 0 130.48 191.41"><defs><style>.cls-1{fill:#fff;}</style></defs><g id="Capa_2" data-name="Capa 2"><g id="Capa_1-2" data-name="Capa 1"><path class="cls-1" d="M116.48,84.35a53.38,53.38,0,0,1,14,1.85,53.55,53.55,0,0,0,0,103.36,53.54,53.54,0,1,1-14-105.21Z"/><path class="cls-1" d="M47.77,114a23.89,23.89,0,0,0-23.88,23.89A23.9,23.9,0,0,0,0,114,23.88,23.88,0,0,0,23.89,90.12,23.87,23.87,0,0,0,47.77,114Z"/><path class="cls-1" d="M101.65,39.05A39.07,39.07,0,0,0,62.58,78.12,39.07,39.07,0,0,0,23.51,39.05,39.06,39.06,0,0,0,62.58,0,39.06,39.06,0,0,0,101.65,39.05Z"/></g></g></svg>