<?xml version="1.0" encoding="utf-8"?>
<!-- Generator: Adobe Illustrator 25.2.1, SVG Export Plug-In . SVG Version: 6.00 Build 0)  -->
<svg version="1.1" id="Capa_1" xmlns="http://www.w3.org/2000/svg" xmlns:xlink="http://www.w3.org/1999/xlink" x="0px" y="0px"
	 viewBox="0 0 16 16" style="enable-background:new 0 0 16 16;" xml:space="preserve">
<style type="text/css">
	.st0{fill:#FFFAF0;}
	.st1{fill:#3A5126;}
</style>
<path class="st0" d="M8,0C3.6,0,0,3.6,0,8s3.6,8,8,8s8-3.6,8-8C16,3.6,12.4,0,8,0z M5.9,11.9H4.1V6.2h1.8V11.9z M5,5.4
	c-0.6,0-1-0.5-1-1c0-0.6,0.5-1,1-1s1,0.5,1,1C6,5,5.6,5.4,5,5.4z M12.4,11.9h-1.7v-3c0-0.8-0.3-1.3-1-1.3C9,7.6,8.7,8.1,8.7,8.9v3H7
	V6.2h1.7V7C8.7,7,9.2,6,10.4,6c1.2,0,2.1,0.7,2.1,2.3C12.4,8.3,12.4,11.9,12.4,11.9z"/>
<rect x="4.1" y="6.2" class="st1" width="1.8" height="5.7"/>
<path class="st1" d="M5,5.4c-0.6,0-1-0.5-1-1c0-0.6,0.5-1,1-1s1,0.5,1,1C6,5,5.6,5.4,5,5.4z"/>
<path class="st1" d="M12.4,11.9h-1.7v-3c0-0.8-0.3-1.3-1-1.3C9,7.6,8.7,8.1,8.7,8.9v3H7V6.2h1.7V7C8.7,7,9.2,6,10.4,6
	c1.2,0,2.1,0.7,2.1,2.3C12.4,8.3,12.4,11.9,12.4,11.9z"/>
</svg>
