<svg id="Capa_1" data-name="Capa 1" xmlns="http://www.w3.org/2000/svg" viewBox="0 0 292.23 179.12"><defs><style>.cls-1{fill:#fff;}</style></defs><path class="cls-1" d="M264.55,44.65a4.93,4.93,0,0,0-3.79-1.53c-20.6.13-48.31,11.24-66.39,23.2A103.56,103.56,0,0,0,164.88,3.6a5.29,5.29,0,0,0-7.4,0c-15,15.15-26.65,41.65-30.6,63.28a104.06,104.06,0,0,0-65-23.74,5.21,5.21,0,0,0-5.28,5.2V58c0,.17,0,.35,0,.53,1.64,16.1,12.75,41.08,22.44,56.4l15.54,6.17c-9.26-14.31-26-48.56-27.6-63.36v-4a93.93,93.93,0,0,1,61.59,28.86c13.47,14,23.59,42.71,26.92,62.65l18,7.14c51.8-6.64,92.25-50.87,92.54-104a5.21,5.21,0,0,0-1.52-3.69Zm-129,30.15c2.66-18.17,13.5-46.23,25.66-59.95a93.61,93.61,0,0,1,23.34,64,95.26,95.26,0,0,1-19.62,56.3A105.61,105.61,0,0,0,135.52,74.8Zm91.09,41.05A95.51,95.51,0,0,1,172.74,142,105.9,105.9,0,0,0,194.91,76.7c15.47-10.16,43.78-22,60.58-23A94.47,94.47,0,0,1,226.61,115.85Z" transform="translate(-15.4 -2.09)"/><path class="cls-1" d="M95.16,121.28l-.53-.21.4.62.1,0,0-.45Z" transform="translate(-15.4 -2.09)"/><path class="cls-1" d="M192,78.71c-1.12.81,1.37.21,0,0Z" transform="translate(-15.4 -2.09)"/><path class="cls-1" d="M136.55,135.46a95.57,95.57,0,0,0-105.49,9,3.41,3.41,0,0,0,0,5.4,94.75,94.75,0,0,0,59.24,20.85h.27a94.52,94.52,0,0,0,48.07-13.14,5.2,5.2,0,0,1,7.7,5.75,5.2,5.2,0,0,1-2.39,3.19,105.13,105.13,0,0,1-53.4,14.59h-.2A105.21,105.21,0,0,1,24.14,157.6a4.89,4.89,0,0,1-.41-.37l-6.81-6.8a5.19,5.19,0,0,1,0-7.38A104.56,104.56,0,0,1,79.23,114a100.39,100.39,0,0,1,71.29,19.88l23.17,17.6a96.15,96.15,0,0,0,117.91-1.64,3.47,3.47,0,0,0,0-5.4A94,94,0,0,0,246,124.51a5.2,5.2,0,0,1,1.51-10.29,104.32,104.32,0,0,1,58.54,29.18,5.19,5.19,0,0,1,0,7.38,105.38,105.38,0,0,1-74.52,30.43h0a105.32,105.32,0,0,1-74.46-30.39l0,0,0,0a93.91,93.91,0,0,0-20.47-15.31Z" transform="translate(-15.4 -2.09)"/></svg>