<?xml version="1.0" encoding="utf-8"?>
<!-- Generator: Adobe Illustrator 25.2.1, SVG Export Plug-In . SVG Version: 6.00 Build 0)  -->
<svg version="1.1" id="Capa_1" xmlns="http://www.w3.org/2000/svg" xmlns:xlink="http://www.w3.org/1999/xlink" x="0px" y="0px"
	 viewBox="0 0 1368.3 647.5" style="enable-background:new 0 0 1368.3 647.5;" xml:space="preserve">
<style type="text/css">
	.st0{fill:#3A5126;}
</style>
<g id="Capa_2_1_">
	<g id="Capa_1-2">
		<path class="st0" d="M525.3,971.8c-0.1,0-0.2-0.1-0.3-0.1c-0.2,0-0.5,0-0.6-0.3c-0.2-0.3-0.3-0.7-0.2-1c0.4-0.8,0.7-1.8,1.6-2.3
			c0.1-0.1,0.2-0.1,0.2-0.2c0.1-0.4,0.5-0.7,0.8-1s0.6-0.7,0.9-1c0.2-0.2,0.5-0.5,0.8-0.6c0.3-0.1,0.6-0.4,0.8-0.7
			c0.1-0.3,0.3-0.5,0.6-0.6c0.3-0.1,0.6-0.4,0.7-0.7c0.1-0.2,0.2-0.4,0.4-0.4c0.5-0.2,0.9-0.5,1.2-0.9c0.3-0.4,0.7-0.7,1.1-0.9
			c0.6-0.4,1.2-0.8,1.8-1.4c0,0,0.1-0.1,0.2-0.1c0.4,0,0.7-0.4,1-0.6c0.7-0.6,1.5-1,2.3-1.4c0.5-0.3,1-0.5,1.4-0.7c0,0,0,0,0,0
			c0.4-0.5,1-0.7,1.5-1c0.5-0.3,1-0.7,1.6-1c0.7-0.4,1.4-0.6,2.1-1c0.4-0.2,0.7-0.4,1.1-0.6c0.3-0.2,0.6-0.3,0.9-0.4
			c0.3-0.1,0.5-0.2,0.7-0.3c0.4-0.2,0.8-0.4,1.3-0.6c0.4-0.2,0.7-0.5,1.1-0.6c0.5-0.3,1-0.5,1.5-0.7c0.4-0.2,0.7-0.3,1.1-0.4
			c0.1-0.1,0.2-0.1,0.2-0.2c0.3-0.2,0.6-0.4,1-0.4c0.1,0,0.2,0,0.4-0.1c0.5-0.3,0.9-0.6,1.4-0.8c0.6-0.3,1.1-0.8,1.7-1
			c0.4-0.1,0.8-0.2,1.2-0.4c0.5-0.3,1.1-0.4,1.6-0.7s1.1-0.5,1.7-0.7c0.2-0.1,0.3-0.2,0.5-0.2c0.1,0,0.2-0.1,0.3-0.1
			c0.8-0.3,1.6-0.5,2.3-0.8c0.4-0.2,0.9-0.3,1.3-0.5c0.7-0.3,1.6-0.5,2.3-0.7c0.2-0.1,0.4-0.1,0.6-0.2c0.1,0,0.1-0.1,0.2-0.1
			c0.9,0,1.6-0.6,2.4-0.6c0.2,0,0.5-0.2,0.7-0.3c0.1-0.1,0.3-0.2,0.5-0.2c1.3-0.4,2.6-0.7,3.9-1c0.3-0.1,0.6-0.2,0.9-0.3
			c0.3-0.1,0.6-0.1,0.9-0.1c0.3,0,0.6-0.1,0.9-0.1c0.6-0.1,1.3-0.2,1.9-0.2c0.9,0,1.8,0,2.7-0.1c1.6-0.2,3.3-0.1,4.9-0.2
			c0.5,0,1.1,0.1,1.7,0.1c0.3,0,0.6,0,0.9,0c0.6,0,1.1,0,1.7,0c0.9,0,1.8,0,2.7,0c0.5,0,1.1,0.1,1.6,0.1c0.8,0,1.5-0.1,2.3,0
			c1.1,0,2.2,0.1,3.2,0.3c0.8,0.1,1.5,0.1,2.3,0.2c0.4,0,0.8,0.1,1.2,0.1c0.1,0,0.2,0,0.3,0.1c0.7,0.1,1.5,0.1,2.3,0.2
			c1.6,0.2,3.3,0.4,4.9,1c0.9,0.3,1.8,0.6,2.7,0.9c0.9,0.3,1.9,0.6,2.9,0.9c0.5,0.1,1.1,0.2,1.6,0.5c0.8,0.4,1.5,0.8,2.3,1.2
			c0.3,0.2,0.7,0.3,1,0.5c0.6,0.3,1.2,0.7,1.8,1c0.1,0,0.1,0.1,0.2,0.1c0.3,0.4,0.8,0.6,1.3,0.8c0.6,0.4,1.3,0.8,1.9,1.1
			c0.4,0.2,0.8,0.5,1.1,0.7c0.6,0.3,1.1,0.6,1.7,1c0.1,0.1,0.2,0.1,0.3,0.1c0.3,0.1,0.6,0.3,0.9,0.5c0.3,0.3,0.7,0.4,1.1,0.7
			c0.3,0.2,0.6,0.4,0.8,0.6c0.2,0.2,0.4,0.3,0.6,0.3c0.2,0.1,0.5,0.2,0.7,0.3c0.3,0.2,0.7,0.4,1,0.6c0.2,0.1,0.4,0.3,0.6,0.5
			c0.3,0.3,0.7,0.6,1.1,0.8c0.4,0.2,0.7,0.4,1,0.7c0.2,0.2,0.5,0.3,0.8,0.3c0.6,0,1.2,0.5,1.3,1c0.2,0.5,0.1,1.1-0.1,1.6
			c-0.2,0.4-0.3,0.8-0.7,0.9c-0.1,0-0.1,0.1-0.2,0.2c-0.4,0.5-0.8,1-1.4,1.3c-0.1,0.1-0.3,0.3-0.4,0.4c-0.4,0.4-0.8,0.8-1.3,1.2
			c-0.2,0.1-0.4,0.2-0.5,0.3c-0.4,0.3-0.9,0.6-1.3,1c-0.4,0.5-1,0.6-1.5,1.1c-0.5,0.5-1.1,0.9-1.7,1.2c-0.3,0.2-0.7,0.4-1,0.6
			c-0.2,0.2-0.4,0.3-0.6,0.5c-0.1,0.1-0.2,0.2-0.3,0.3c-0.3,0.2-0.6,0.3-0.9,0.5c-0.2,0.1-0.5,0.3-0.7,0.5c-0.5,0.5-1.1,0.9-1.7,1.2
			c-0.2,0.1-0.4,0.2-0.6,0.3c-0.1,0.1-0.3,0.1-0.4,0.1c-0.2,0-0.5,0.1-0.6,0.3c-0.1,0.1-0.1,0.2-0.2,0.2c-0.4,0.4-0.7,0.8-1.2,0.9
			c-0.4,0.1-0.7,0.3-1,0.5c-0.3,0.3-0.8,0.6-1.2,0.8c-0.6,0.2-1.2,0.8-1.7,1.1c-0.4,0.3-0.9,0.6-1.4,0.9c-0.3,0.2-0.6,0.4-1,0.6
			c-0.5,0.3-1,0.6-1.4,0.9c0,0-0.1,0-0.1,0c-0.5,0-0.8,0.3-1.1,0.6c-0.1,0.1-0.2,0.1-0.4,0.2c-0.1,0-0.2,0-0.3,0.1
			c-0.4,0.5-1.1,0.6-1.6,1c-0.1,0.1-0.3,0.2-0.4,0.2c-0.5,0.1-1,0.3-1.4,0.8c-0.2,0.2-0.6,0.3-1,0.3c-0.7,0-1.1,0.4-1.6,0.8
			c-0.4,0.4-0.9,0.5-1.4,0.7c-0.8,0.3-1.5,0.6-2.3,0.9c-0.1,0-0.1,0-0.2,0.1c-0.3,0.4-0.8,0.5-1.2,0.7c-1,0.3-1.9,0.7-2.9,1
			c-0.2,0.1-0.3,0.1-0.5,0.2c-0.3,0.2-0.5,0.3-0.9,0.3c-0.1,0-0.3,0.1-0.4,0.1c-0.1,0-0.2,0.1-0.3,0.1c-0.4,0-0.7,0.1-1,0.4
			c-0.1,0.1-0.3,0.1-0.4,0.2c-0.2,0.1-0.4,0.1-0.6,0.2c-0.1,0-0.1,0.1-0.1,0.1c-0.7-0.1-1.4,0.4-2.1,0.4c-0.3,0-0.7,0.1-1,0.1
			c-0.7,0.1-1.4,0.2-2,0.5c-0.3,0.2-0.7,0.3-1.1,0.2c-0.3-0.1-0.7-0.1-1,0.1c-0.5,0.2-1,0.2-1.5,0.2c-0.3,0-0.6,0.1-0.9,0.1
			c-0.5,0.1-1,0.2-1.5,0.1c-0.6-0.1-1.3-0.1-1.9,0.2c-0.2,0.1-0.4,0.1-0.6,0.1c-1.2,0-2.3,0-3.5-0.1c-0.2,0-0.4,0-0.6-0.1
			c-0.1,0-0.1,0-0.2,0c-0.2,0.1-0.5,0.2-0.7,0.2c-0.3,0-0.5-0.1-0.8,0c-0.6,0.1-1.2,0.2-1.8,0.2c-0.3,0-0.7,0-1,0
			c-0.5,0-0.9,0-1.3-0.3c-0.1-0.1-0.4,0-0.6,0c-0.6,0-1.3,0.1-1.9,0.1c-0.1,0-0.2-0.1-0.3-0.1c0,0-0.1-0.1-0.1-0.1
			c-0.7,0.1-1.3-0.5-2-0.3c-0.3,0.1-0.7,0.1-1,0.1c-0.2,0-0.5,0-0.6-0.1c-0.3-0.2-0.6-0.2-0.9-0.2c-0.5,0-1-0.2-1.4-0.1
			c0,0,0,0-0.1,0c-0.9-0.4-1.8,0-2.6-0.2c-0.3-0.1-0.7,0-1,0c-0.3,0-0.6,0-0.9-0.3c-0.2-0.2-0.4-0.2-0.6-0.1c-0.2,0.1-0.4,0.1-0.6,0
			c-0.4-0.1-0.7-0.2-1.1-0.3c-0.5-0.2-1-0.2-1.5-0.2c-0.2,0-0.5,0-0.7-0.1c-0.4-0.1-0.7-0.2-1.1-0.3c-0.1,0-0.2,0-0.3,0
			c-0.6-0.3-1.3-0.3-1.9-0.4c-0.1,0-0.2,0-0.4-0.1c-0.5-0.1-0.9-0.1-1.4-0.3c-0.4-0.1-0.8-0.3-1.2-0.5c-0.1-0.1-0.3-0.1-0.4-0.2
			c-0.6-0.1-1.2-0.2-1.8-0.3c-0.8-0.2-1.5-0.3-2.3-0.5c-0.1,0-0.1,0-0.2-0.1c-0.4-0.3-0.9-0.5-1.4-0.7c-0.5-0.2-1-0.4-1.5-0.6
			c-0.5-0.2-1.1-0.2-1.6-0.4c-0.7-0.2-1.5-0.3-2.2-0.7c-0.3-0.2-0.7-0.4-1-0.5c-0.6-0.3-1.3-0.4-1.9-0.7c-0.7-0.4-1.3-0.3-2-0.3
			c-0.8,0-1.7,0.1-2.5,0c-0.5,0-1,0.2-1.4,0.4c-0.2,0.1-0.4,0.2-0.7,0.2c-1,0.2-1.9-0.1-2.7-0.7c-0.2-0.1-0.3-0.3-0.4-0.4
			c-0.2-0.3-0.5-0.5-0.9-0.7c-0.3-0.1-0.5-0.2-0.5-0.6c0-0.1-0.1-0.3-0.2-0.4c-0.4-0.7-0.7-1.5-0.4-2.4c0-0.1,0.1-0.2,0.1-0.3
			c0.1-0.2,0.1-0.4,0.2-0.6c0.1-0.3,0.1-0.6,0.2-0.9C525,972.6,525.1,972.2,525.3,971.8z M580.7,952c-0.4-0.3-0.5-0.3-0.8-0.3
			c-0.6,0-1.1,0.1-1.7,0.2c-0.8,0.2-1.6,0.5-2.4,0.7c-0.6,0.2-1.2,0.4-1.8,0.3c-0.4,0-0.8,0.1-1.1,0.3c-0.7,0.4-1.4,0.6-2.1,0.6
			c-0.3,0-0.6,0-0.8,0.1c-1.1,0.4-2.1,1.1-3.4,1c-0.3,0-0.5,0.1-0.7,0.4c-0.2,0.2-0.4,0.3-0.6,0.5c-0.6,0.3-1.3,0.6-1.9,0.9
			c-0.4,0.2-0.9,0.4-1.3,0.5c-0.7,0.1-1.4,0.2-2.1,0.2c-0.3,0-0.7,0-0.9,0.3c-0.1,0.1-0.2,0.1-0.3,0.2c-0.4,0.2-0.8,0.3-1.3,0.5
			c-0.5,0.1-1,0.3-1.5,0.6c-0.3,0.2-0.8,0.3-1.2,0.4c-0.3,0.1-0.6,0.2-0.8,0.5c-0.1,0.2-0.4,0.2-0.6,0.3c-0.6,0.2-1.2,0.5-1.8,0.7
			c-0.1,0-0.2,0.1-0.3,0.2c-0.4,0.5-0.9,0.7-1.4,0.9c-0.2,0.1-0.3,0.2-0.5,0.3c-0.2,0.2-0.4,0.4-0.7,0.5c-0.2,0.1-0.4,0.2-0.6,0.3
			c-0.2,0.1-0.4,0.2-0.6,0.4c-0.1,0.1-0.2,0.1-0.3,0.2c-0.7,0.6-1.4,1.2-2.1,1.9c-0.2,0.2-0.4,0.4-0.5,0.6c-0.2,0.3-0.4,0.6-0.8,0.8
			c-0.2,0.1-0.4,0.3-0.5,0.5c-0.2,0.3-0.4,0.6-0.6,0.9c-0.1,0.2-0.2,0.4-0.2,0.6c0.1,0.5-0.1,1-0.3,1.4c-0.1,0.1-0.1,0.2-0.2,0.4
			c-0.1,0.5-0.4,0.9-0.7,1.2c-0.1,0.1-0.2,0.2-0.4,0.4c-0.5,0.7-1,0.9-1.8,0.7c-0.1,0-0.2-0.1-0.3-0.1c-0.2-0.1-0.5-0.1-0.7,0
			c-0.2,0.1-0.5,0.2-0.7,0.3c-0.1,0.1-0.2,0.1-0.3,0.2c-0.4,0.5-0.9,1-1.5,1.4c-0.2,0.1-0.4,0.2-0.7,0.2c-0.7,0-1.4,0-1.9-0.6
			c0,0,0,0,0,0c-0.4-0.1-0.5-0.4-0.6-0.7c0-0.3,0-0.6,0-0.9c0-0.5,0.3-0.8,0.7-0.9c0.3-0.1,0.6-0.2,0.9-0.3c0.4-0.1,0.7-0.3,1-0.6
			c0.3-0.4,0.8-0.6,0.9-1.2c0-0.1,0.1-0.1,0.2-0.2c0.3-0.4,0.6-0.9,0.9-1.3c0.3-0.4,0.6-0.8,0.7-1.3c0-0.1,0.1-0.2,0.1-0.2
			c0.3-0.4,0.3-0.6-0.1-0.9c-0.1-0.1-0.3-0.2-0.5-0.3c-0.4-0.2-0.9-0.5-1.4-0.7c-0.3-0.2-0.7-0.1-1.1,0c-0.5,0.3-1,0.7-1.3,1.1
			c-0.1,0.2-0.3,0.3-0.5,0.5c-0.4,0.2-0.6,0.6-0.8,0.9c-0.1,0.2-0.2,0.3-0.4,0.5c-0.3,0.2-0.5,0.5-0.7,0.8c-0.1,0.2-0.2,0.5-0.4,0.7
			c-0.4,0.5-0.9,0.9-1,1.6c0,0.1-0.1,0.1-0.1,0.2c-0.2,0.5-0.4,1-0.5,1.5c-0.1,0.5-0.2,1-0.4,1.5c-0.2,0.4-0.4,0.9-0.2,1.4
			c0,0.1,0.1,0.3,0.1,0.4c0.1,0.4,0.1,0.5,0.5,0.5c0.2,0,0.5,0,0.7,0c0.4-0.1,0.7-0.3,1.1-0.4c0.2-0.1,0.3-0.1,0.5-0.2
			c0.2,0,0.4-0.1,0.6-0.1c0.6-0.2,1.1-0.3,1.8-0.2c0.4,0.1,0.8,0.1,1.2,0.2c0.6,0.1,1.3,0.1,1.8,0.6c0.3,0.2,0.7,0.4,1,0.3
			c0.5,0,1,0.2,1.4,0.4c0.1,0.1,0.2,0.1,0.3,0.2c0.5,0.2,1,0.5,1.5,0.7c0.6,0.3,1.1,0.7,1.8,0.7c0.1,0,0.2,0,0.3,0.1
			c0.5,0.2,1,0.3,1.5,0.5c0.6,0.2,1.2,0.3,1.9,0.5c0.4,0.1,0.9,0.2,1.3,0.4c0.8,0.4,1.7,0.5,2.5,0.7c0.9,0.2,1.8,0.6,2.8,0.8
			c0.6,0.1,1.2,0.4,1.9,0.5c0.4,0.1,0.8,0.2,1,0.6c0.4-0.2,0.8-0.1,1.2,0c0.3,0.1,0.5,0.1,0.8,0.2c0.6,0.1,1.2,0.2,1.8,0.2
			c0.3,0,0.5,0.1,0.8,0.1c0.5,0.1,1.1,0.1,1.7,0.3c0.6,0.2,1.2,0.4,1.8,0.2c0.1,0,0.2,0,0.4,0c0.8,0.1,1.6,0.1,2.4,0.2
			c0.5,0,1.1,0.1,1.6,0.1c0.9,0.1,1.8,0.4,2.8,0.4c0.7,0,1.5,0,2.2,0.1c0.7,0.1,1.4,0.2,2.1,0.2c0.6,0,1.3,0.1,1.9,0.1
			c0.2,0,0.4,0.1,0.6,0.1c0.3,0.1,0.6,0.1,0.9,0.1c0.3,0,0.6,0,0.9,0c0.2,0,0.3,0,0.5,0c0.6-0.1,1.2-0.3,1.8-0.1c0.1,0,0.2,0,0.3,0
			c0.6,0,1.2-0.1,1.8-0.1c0.5,0,0.9-0.1,1.4-0.2c0.6-0.1,1.2-0.3,1.8-0.3c0.8,0,1.6-0.3,2.4-0.1c0.1,0,0.1,0,0.2,0
			c0.7-0.1,1.5-0.3,2.2-0.3c0.1,0,0.2,0,0.3-0.1c0.5-0.2,1.1-0.3,1.6-0.4c0.2,0,0.4-0.1,0.5-0.2c0.6-0.3,1.3-0.4,2-0.4
			c0.3,0,0.5,0,0.8-0.1c0.9-0.3,1.8-0.5,2.7-0.9c0.4-0.2,0.8-0.4,1.3-0.4c0.1,0,0.2-0.1,0.3-0.1c0.3-0.1,0.6-0.3,0.9-0.4
			c0.8-0.3,1.6-0.6,2.4-0.8c0.1,0,0.2-0.1,0.3-0.1c0.9-0.3,1.7-0.9,2.7-1.1c0.1,0,0.2-0.1,0.2-0.1c0.8-0.7,1.8-1,2.7-1.4
			c0.4-0.1,0.8-0.1,1.1-0.5c0,0,0.1-0.1,0.1-0.1c0.4,0,0.7-0.3,0.9-0.5c0.1-0.1,0.3-0.2,0.4-0.3c0.2-0.1,0.3-0.2,0.5-0.3
			c0.2-0.1,0.5-0.3,0.7-0.4c0.7-0.4,1.4-0.8,2-1.2c0.3-0.2,0.6-0.3,0.9-0.3c0.6-0.1,1.1-0.4,1.5-0.8c0.5-0.6,1.2-1,1.9-1.4
			c0.4-0.3,0.9-0.3,1.2-0.8c0,0,0,0,0,0c0.4-0.2,0.7-0.5,1.1-0.6c0.4-0.2,0.8-0.4,1.1-0.6c0.1-0.1,0.3-0.2,0.4-0.2
			c0.5-0.2,0.9-0.5,1.3-0.9c0.1-0.1,0.3-0.2,0.4-0.3c0.3-0.2,0.7-0.4,1.1-0.6c0.4-0.2,0.7-0.5,1.1-0.8c0.2-0.2,0.4-0.4,0.7-0.6
			c0.2-0.2,0.5-0.4,0.7-0.5c0.4-0.3,0.8-0.5,1.3-0.7c0.2-0.1,0.3-0.2,0.5-0.3c0.2-0.2,0.4-0.5,0.7-0.6c0.6-0.2,1-0.7,1.5-1
			c0.4-0.3,0.7-0.7,1.1-1c0.6-0.5,1.2-0.9,1.8-1.3c0.2-0.2,0.4-0.4,0.6-0.6c0.5-0.4,0.9-0.7,1.5-1.1c0,0,0-0.1,0-0.1
			c0.1-0.4-0.1-0.7-0.4-1c-0.2-0.2-0.4-0.5-0.6-0.7c-0.1-0.1-0.3-0.3-0.4-0.3c-0.6-0.1-1-0.5-1.6-0.8c-0.6-0.3-1.2-0.6-1.7-1.1
			c0,0,0,0,0,0c-0.8-0.5-1.7-0.7-2.3-1.4c-0.1-0.1-0.2-0.1-0.2-0.1c-0.2-0.1-0.3-0.2-0.5-0.3c-0.5-0.5-1-1-1.6-1.3
			c-0.4-0.2-0.8-0.5-1.2-0.6c-0.1,0-0.3-0.2-0.4-0.3c-0.5-0.5-1.1-0.6-1.7-0.9c-0.2-0.1-0.4-0.1-0.6-0.3c-0.3-0.4-0.8-0.6-1.2-0.7
			c-0.2,0-0.3-0.1-0.4-0.2c-0.9-0.3-1.6-1.1-2.6-1.4c-0.1,0-0.1-0.1-0.2-0.1c-0.2-0.1-0.4-0.1-0.5-0.2c-0.2-0.1-0.4-0.1-0.6-0.2
			c-0.6-0.3-1.2-0.7-1.9-0.6c-0.2,0-0.4-0.1-0.7-0.2c-0.7-0.3-1.4-0.5-2.1-0.8c-0.1,0-0.2-0.1-0.4-0.1c-0.6,0-1.2-0.3-1.8-0.5
			c-0.2-0.1-0.4-0.1-0.6-0.1c-0.7-0.1-1.4-0.4-2.2-0.4c-0.5,0-0.9-0.2-1.4-0.2c-0.5-0.1-0.9-0.2-1.4-0.2c-1.6-0.1-3.2,0.1-4.7-0.4
			c-0.1,0-0.1,0-0.2,0c-0.6,0.1-1.2-0.2-1.8,0c0,0-0.1,0-0.2,0c-0.2,0-0.4-0.1-0.7-0.1c-0.5,0-1,0-1.5,0c-0.5,0-0.9-0.3-1.4-0.1
			c-0.1,0-0.2,0-0.2-0.1c-0.1,0-0.2,0-0.3,0c-0.6,0.2-1.2,0-1.8,0.1c-0.2,0-0.4-0.1-0.6-0.1c-0.3,0-0.6-0.1-0.8,0
			c-0.6,0.1-1.2,0.1-1.8-0.1c-0.2-0.1-0.4-0.1-0.6-0.2c-0.1,0-0.3-0.1-0.4,0c-0.3,0.2-0.6,0.2-1,0.2c-0.8,0-1.7-0.1-2.5-0.1
			c-0.6,0-1.3,0-1.9,0.2c-0.2,0.1-0.4,0.1-0.6,0.1c-0.7,0-1.5,0.1-2.2,0.1c-1.1,0.1-2.2,0.2-3.3,0.3c-0.1,0-0.3,0-0.4,0.1
			c-0.6,0.3-1.2,0.3-1.8,0.2c-0.1,0-0.2,0-0.4,0c-0.2,0-0.3,0-0.3,0.3c0,0.3-0.2,0.3-0.4,0.3c-0.4,0-0.8,0.1-1.1,0.3
			c-0.2,0.1-0.3,0.3-0.5,0.4c-0.4,0.2-0.9,0.3-1.3,0.4c-0.3,0.1-0.6,0.1-1,0.2c-0.8,0.3-1.6,0.5-2.4,0.8c-0.3,0.1-0.7,0.1-1,0.2
			c-0.3,0.2-0.7,0.2-1,0.4c-0.2,0.1-0.4,0.2-0.6,0.3c-0.1,0.1-0.2,0.1-0.4,0.2c-0.5,0.1-1,0.4-1.5,0.4c-0.1,0-0.1,0-0.2,0.1
			c-0.3,0.1-0.6,0.2-0.9,0.3c-0.3,0.1-0.7,0.2-1.1,0.3c-0.5,0.2-1.1,0.3-1.6,0.5c-0.1,0-0.2,0.1-0.3,0.1c-0.5,0.4-1,0.6-1.6,0.7
			c-0.3,0-0.5,0.2-0.7,0.4c-0.2,0.2-0.4,0.4-0.6,0.4c-0.5,0-0.9,0.4-1.4,0.6c-0.3,0.1-0.5,0.2-0.8,0.3c-0.3,0-0.4,0.1-0.6,0.3
			c-0.2,0.2-0.4,0.3-0.6,0.4c-0.4,0.2-0.9,0.4-1.3,0.6c-0.1,0.1-0.3,0.1-0.4,0.2c-0.4,0.3-0.8,0.5-1.2,0.7c-0.7,0.2-1.4,0.3-1.8,0.9
			c0,0,0,0,0,0c-0.5,0.4-1.2,0.6-1.8,0.8c-0.2,0.1-0.5,0.2-0.7,0.3c-0.5,0.2-1,0.6-1.5,0.7c-0.1,0-0.2,0.1-0.3,0.1
			c-0.8,0.5-1.7,0.9-2.4,1.5c-0.3,0.2-0.6,0.3-0.9,0.4c-0.1,0-0.3,0.1-0.4,0.1c-0.4,0.3-0.9,0.6-1.3,0.9c-0.2,0.1-0.5,0.2-0.7,0.4
			c-0.1,0.1-0.3,0.2-0.4,0.3c-0.3,0.4-0.6,0.7-1.1,0.9c-0.1,0-0.1,0.1-0.2,0.2c0.1,0.1,0.2,0.2,0.3,0.3c0.3,0.2,0.7,0.4,1,0.6
			c0.2,0.1,0.4,0.3,0.6,0.4c0.3,0.2,0.5,0.2,0.8-0.1c0.2-0.2,0.4-0.4,0.5-0.6c0.5-0.7,1.3-1,2-1.6c0.3-0.2,0.6-0.4,0.8-0.6
			c0.3-0.3,0.5-0.6,0.8-0.8c0.4-0.3,0.8-0.5,1.3-0.7c0.1-0.1,0.2-0.1,0.3-0.2c0.2-0.2,0.4-0.3,0.7-0.5c0.2-0.1,0.3-0.2,0.5-0.3
			c0.3-0.3,0.7-0.5,1.1-0.5c0.4,0,0.8,0,1.2,0c0.2,0,0.4,0.1,0.5,0.3c0.1,0.2,0.4,0.3,0.6,0.2c0.2,0,0.4-0.1,0.6-0.2
			c0.5-0.2,1.1-0.4,1.6-0.7c0.2-0.1,0.5-0.1,0.6-0.2c0.4-0.4,1.1-0.2,1.5-0.7c0-0.1,0.2,0,0.3-0.1c0.1,0,0.3,0,0.4,0
			c0.5-0.2,1.1-0.3,1.6-0.5c0.6-0.2,1.2-0.6,1.9-0.7c0.3-0.1,0.6-0.1,0.8-0.1c0.4-0.1,0.8-0.2,1.3-0.3c0.5-0.1,1-0.3,1.4-0.5
			c0.6-0.2,1.1-0.6,1.7-0.5c0.2,0,0.4-0.1,0.4-0.2c0.1-0.2,0.3-0.3,0.5-0.3c0.5-0.1,1-0.2,1.4-0.6c0.1-0.1,0.2-0.1,0.3-0.1
			c0.6-0.2,1.3-0.3,1.9-0.5c0.7-0.3,1.5-0.2,2.2-0.4c0.5-0.2,0.9-0.2,1.4-0.3c0.4-0.1,0.7-0.2,1.1-0.2c0.3,0,0.6,0,0.9-0.2
			c0.5-0.3,1.2-0.3,1.8-0.6c0.1-0.1,0.3-0.1,0.5-0.1c0.3,0,0.7-0.1,1-0.1c0.6-0.1,1.1-0.3,1.7-0.2c0.7,0,1.4-0.1,2-0.2
			c1.1-0.1,2.1-0.3,3.2-0.4c0.2,0,0.5,0,0.7,0c0.2,0,0.3,0,0.5,0c0.4,0,0.9,0,1.3,0.1c1,0.2,2,0.1,3,0c0.6,0,1.3-0.1,1.9-0.1
			c0.1,0,0.3,0,0.4,0c0.5,0,1.1,0,1.6,0.1c0.1,0,0.2,0,0.3-0.1c0.4-0.1,0.7-0.3,1.1-0.1c0.1,0,0.3,0,0.4,0c0.7-0.1,1.4-0.2,2.1-0.2
			c0.5,0,1.1-0.1,1.6,0.2c0.1,0.1,0.3,0.1,0.5,0.1c0.5,0.1,1,0.1,1.6,0.2c0.1,0,0.2,0,0.3,0c0.4,0.1,0.7,0.2,1.1,0.3
			c0.4,0.1,0.7,0.2,1.1,0.2c0.8,0.2,1.6,0.3,2.4,0.5c0.4,0.1,0.9,0.1,1.3,0.2c0.6,0.2,1.2,0.6,1.9,0.7c0.1,0,0.2,0.1,0.3,0.2
			c0.2,0.1,0.4,0.2,0.6,0.3c0.5,0.2,1,0.4,1.6,0.6c0.2,0.1,0.4,0.3,0.6,0.4c0.6,0.2,1.2,0.4,1.8,0.7c0.5,0.2,1,0.3,1.2,0.9
			c0.1,0.1,0.2,0.2,0.4,0.3c1,0.4,1.9,0.7,2.9,1.1c0.4,0.2,0.9,0.3,1.2,0.7c0,0.1,0.1,0.1,0.2,0.1c0.8,0.3,1.7,0.7,2.5,1
			c0.1,0,0.1,0.1,0.2,0.1c0.4,0.3,0.9,0.6,1.3,0.9c0.1,0.1,0.3,0.2,0.3,0.3c0.2,0.5,0.3,1,0,1.6c-0.4,0.7-0.9,1-1.6,1.2
			c-0.2,0.1-0.4,0-0.6-0.1c-0.8-0.3-1.5-0.9-2.2-1.4c-0.3-0.2-0.6-0.4-0.9-0.6c-0.2-0.1-0.4-0.2-0.5-0.3c-0.5-0.3-0.9-0.6-1.5-0.8
			c-1-0.3-1.9-0.9-2.9-1.1c-0.2,0-0.3-0.2-0.4-0.3c-0.1-0.1-0.3-0.2-0.5-0.3c-0.7-0.4-1.3-0.8-2-1.2c-0.1-0.1-0.3-0.2-0.5-0.2
			c-0.8-0.2-1.5-0.3-2.2-0.8c-0.1-0.1-0.2-0.1-0.3-0.2c-0.4-0.1-0.8-0.3-1.1-0.6c-0.2-0.1-0.4-0.2-0.6-0.1c-0.6,0.2-1.2,0.1-1.7-0.2
			c-0.2-0.1-0.5-0.2-0.7-0.3c-1-0.2-1.9-0.3-2.8-0.7c-0.1,0-0.2-0.1-0.3-0.1c-0.6,0-1.2,0-1.8-0.1c-0.8,0-1.6-0.1-2.4-0.1
			c-0.1,0-0.2,0-0.4,0.1c0.5,0.4,1.2,0.7,1.5,1.2c0.6,0.3,0.8,1.1,1.4,1.3c0.1,0,0.1,0.2,0.2,0.3c0.3,0.5,0.5,1,0.8,1.5
			c0.4,0.6,0.6,1.2,0.8,1.9c0,0.1,0,0.2,0.1,0.4c0.4,1.1,0.8,2.3,0.8,3.5c0,0.1,0,0.2,0.1,0.3c0.2,0.5,0,1.1,0,1.6c0,0,0,0.1,0,0.1
			c-0.3,0.2-0.2,0.5-0.1,0.8c0.1,0.3,0,0.6,0.1,0.9c0,0.2-0.1,0.5-0.2,0.6c-0.2,0.1-0.3,0.3-0.3,0.6c0,0.1-0.1,0.3-0.2,0.3
			c-0.5,0.2-0.6,0.6-0.7,1c-0.2,0.6-0.5,0.8-1.1,0.8c-0.2,0.4-0.5,0.7-0.7,1.1c0,0.1-0.1,0.1-0.2,0.1c-0.3,0.1-0.5,0.3-0.7,0.5
			c-0.2,0.3-0.5,0.5-0.8,0.7c-0.5,0.2-0.8,0.7-1.3,0.8c-0.4,0.1-0.8,0.3-1.2,0.5c-0.3,0.2-0.6,0.4-1,0.5c-0.5,0.2-1,0.3-1.6,0.5
			c-0.1,0-0.1,0-0.2,0c-1,0-1.9,0.2-2.8,0.4c-0.5,0.1-0.9,0.3-1.4,0.3c-0.4,0-0.8,0-1.2,0.1c-0.1,0-0.2,0-0.3,0
			c-0.5-0.1-1-0.1-1.4-0.4c-0.1-0.1-0.2-0.1-0.3-0.1c-0.4,0-0.7-0.2-1-0.3c-0.3-0.1-0.5-0.3-0.8-0.4c-0.3-0.1-0.6-0.4-0.9-0.6
			c-0.4-0.3-0.8-0.6-1.2-0.8c-0.4-0.2-0.8-0.4-0.8-0.9c-0.5-0.1-0.8-0.3-1-0.7c-0.1-0.1-0.1-0.2-0.2-0.2c-0.6-0.6-1.1-1.3-1.4-2.2
			c-0.1-0.2-0.1-0.4-0.3-0.5c-0.5-0.7-0.8-1.3-1-2.1c-0.1-0.8-0.4-1.5-0.3-2.3c0-0.1,0-0.2-0.1-0.4c0-0.3,0-0.6,0-0.9
			c0.1-0.4,0.2-0.9,0.3-1.3c0.1-0.4,0.1-0.8,0.2-1.2c0-0.4,0.1-0.7,0.2-1.1c0.2-0.3,0.3-0.6,0.5-0.9c0.1-0.2,0.3-0.4,0.4-0.6
			c0.1-0.5,0.3-0.8,0.5-1.2c0.2-0.3,0.4-0.7,0.7-1c0.4-0.4,0.9-0.8,1.3-1.2C580.1,952.7,580.4,952.3,580.7,952z M599.5,963.6
			c-0.1-0.2-0.2-0.4-0.2-0.6c-0.1-1-0.2-2.1-0.5-3c-0.1-0.4-0.2-0.9-0.4-1.3c-0.1-0.2-0.2-0.4-0.3-0.6c-0.2-0.4-0.3-0.9-0.7-1.2
			c-0.1-0.1-0.2-0.2-0.2-0.4c-0.1-0.2-0.2-0.4-0.4-0.5c-0.1-0.1-0.2-0.1-0.3-0.3c-0.2-0.4-0.5-0.6-0.8-0.8c-0.2-0.1-0.3-0.2-0.4-0.5
			c0-0.1-0.2-0.2-0.3-0.2c-0.1-0.1-0.2-0.1-0.3-0.2c-0.5-0.3-1-0.6-1.5-1c-0.1,0-0.1-0.1-0.2-0.1c-0.5-0.1-0.9-0.4-1.3-0.7
			c-0.4-0.3-1-0.7-1.5-0.7c-0.5,0-1.1,0-1.6,0.3c-0.2,0.1-0.5,0.3-0.7,0.2c-0.4-0.1-0.6-0.1-0.9,0.1c-0.1,0.1-0.3,0.1-0.5,0.1
			c-0.3,0-0.7,0.2-1,0.4c-0.5,0.3-0.9,0.7-1.5,0.8c-0.3,0.1-0.5,0.2-0.8,0.4c-0.1,0-0.1,0.1-0.2,0.2c-0.1,0.5-0.6,0.7-0.9,0.9
			c-0.3,0.2-0.5,0.4-0.6,0.6c-0.4,0.6-0.6,1.2-1.1,1.6c-0.2,0.2-0.4,0.5-0.5,0.8c-0.2,0.5-0.4,1-0.6,1.5c0,0.1-0.1,0.1-0.1,0.2
			c-0.1,0.6-0.1,1.3-0.3,2c0,0.1,0,0.1,0,0.2c0.3,0.6,0.3,1.2,0.3,1.8c0,0.1,0,0.2,0.1,0.3c0.3,0.2,0.3,0.5,0.3,0.8
			c0.1,0.3,0.1,0.7,0.3,1c0.5,0.6,1,1.1,1.4,1.7c0.1,0.2,0.2,0.4,0.4,0.5c0.5,0.5,1,0.9,1.5,1.3c0.3,0.3,0.7,0.5,1.1,0.7
			c0.7,0.2,1.2,0.9,2,0.9c0.1,0,0.2,0.1,0.3,0.2c0.4,0.1,0.7,0.2,1.1,0.1c0.4-0.1,0.7-0.1,1.1-0.2c0.2,0,0.5-0.1,0.7-0.1
			c0.7-0.2,1.5-0.4,2.2-0.6c0.1,0,0.3-0.1,0.4-0.1c0.6-0.2,1.2-0.6,1.9-0.5c0.2,0,0.5-0.1,0.6-0.3c0.1-0.3,0.4-0.4,0.7-0.5
			c0.4-0.1,0.7-0.3,0.9-0.6c0.2-0.2,0.4-0.3,0.7-0.5c0.1,0,0.2-0.1,0.2-0.1c0.3-0.4,0.7-0.8,1-1.2c0.2-0.2,0.3-0.4,0.5-0.7
			c0.2-0.3,0.4-0.7,0.6-1c0.1-0.1,0.1-0.3,0.1-0.4C599.2,964.2,599.3,963.8,599.5,963.6z"/>
		<path class="st0" d="M649.2,970.2c0.5,0,0.9,0.1,1.2,0.4c0.1,0.1,0.2,0.1,0.3,0.1c0.2,0.1,0.4,0.1,0.5,0.3
			c0.2,0.3,0.6,0.4,0.9,0.5c0.4,0,0.7,0.2,1,0.5c0.1,0.1,0.3,0.2,0.4,0.2c0.3,0.2,0.6,0.3,0.9,0.5c0,0,0.1,0.1,0.1,0.1
			c0.7,0.3,1.4,0.5,2.2,0.8c0,0,0,0,0.1,0c0.8,0.3,1.5,0.6,2.3,0.9c0.5,0.2,1,0.3,1.5,0.5c0.8,0.3,1.6,0.6,2.4,0.9
			c1.5,0.6,3.1,1.1,4.6,1.7c1.2,0.4,2.4,0.8,3.6,1.2c0.5,0.2,1.1,0.3,1.6,0.4c1,0.3,1.4,0.8,1.3,1.9c0,0.5,0,1-0.3,1.4
			c-0.1,0.2-0.3,0.4-0.5,0.5c-0.6,0.3-1.2,0.3-1.7-0.1c-0.1-0.1-0.3-0.1-0.4-0.2c-0.2-0.1-0.4-0.1-0.5-0.3c-0.3-0.3-0.6-0.5-1-0.5
			c-0.1,0-0.2-0.1-0.3-0.2c-0.2-0.1-0.4-0.2-0.6-0.2c-0.1,0-0.2,0-0.3,0c-0.6-0.4-1.4-0.4-2-0.9c-0.1-0.1-0.2-0.1-0.4-0.1
			c-0.3,0-0.6-0.1-0.8-0.3c-0.1-0.1-0.3-0.2-0.5-0.2c-0.8,0-1.4-0.4-2.1-0.7c-0.3-0.1-0.6-0.2-0.9-0.3c-0.6-0.2-1.1-0.4-1.7-0.7
			c-0.1,0-0.2-0.1-0.3-0.2c-0.3-0.1-0.6-0.2-0.9-0.3c-0.2-0.1-0.5-0.1-0.7-0.1c-0.7-0.2-1.3-0.5-2-0.8c-0.5-0.3-1.1-0.5-1.7-0.6
			c-0.6-0.1-1.1-0.4-1.7-0.7c-0.5-0.3-1.1-0.5-1.7-0.5c-0.5-0.1-1.1-0.2-1.6-0.4c-0.1-0.1-0.3-0.1-0.4-0.2c-0.4-0.1-0.8-0.3-1.1-0.7
			c-0.2-0.2-0.4-0.4-0.6-0.5c-0.3-0.2-0.5-0.5-0.5-0.9c0-0.1,0.1-0.2,0-0.4c-0.1-0.7,0.4-1.1,0.9-1.3
			C648.5,970.4,648.9,970.1,649.2,970.2z"/>
		<path class="st0" d="M619.5,988.8c0.9,0,1.5,0.3,1.9,1c0.1,0.3,0.4,0.4,0.6,0.6c0.3,0.3,0.7,0.5,0.8,0.9c0.3,0.7,0.9,1,1.3,1.6
			c0.4,0.6,0.8,1.3,1.2,2c0,0.1,0.1,0.1,0.1,0.2c0.5,0.7,1.1,1.4,1.6,2.1c0.2,0.3,0.4,0.6,0.7,0.9c0.2,0.2,0.4,0.4,0.6,0.7
			c0.1,0.1,0.2,0.1,0.2,0.2c0.1,0.5,0.6,0.7,0.8,1c0.5,0.6,0.9,1.1,1.4,1.7c0.5,0.6,1,1.2,1.7,1.6c0.2,0.1,0.3,0.3,0.4,0.5
			c0.2,0.4,0.5,0.7,0.9,0.8c0.1,0,0.2,0.1,0.2,0.2c0,0.4,0.3,0.6,0.6,0.8c0.3,0.2,0.5,0.5,0.7,0.8c0.1,0.2,0.3,0.4,0.5,0.7
			c0.1,0.1,0.2,0.2,0.2,0.2c0.2,0.4,0.5,0.7,0.8,1.1c0.5,0.6,0.2,1.2-0.5,1.6c-0.2,0.1-0.4,0.3-0.6,0.4c-0.5,0.3-1.1,0.7-1.8,0.6
			c-0.2,0-0.4-0.1-0.6-0.2c-0.1-0.1-0.2-0.2-0.4-0.3c-0.3-0.2-0.5-0.5-0.5-0.8c-0.1-0.5-0.4-0.9-0.7-1.3c-0.3-0.4-0.5-0.8-0.7-1.3
			c-0.1-0.2-0.2-0.3-0.3-0.4c-0.2-0.2-0.4-0.4-0.6-0.6c-0.3-0.2-0.4-0.5-0.5-0.8c-0.1-0.4-0.3-0.7-0.6-0.9c-0.4-0.3-0.7-0.7-0.8-1.2
			c0-0.1-0.1-0.2-0.2-0.3c-0.4-0.2-0.7-0.6-0.9-1c-0.1-0.1-0.1-0.2-0.2-0.2c-0.4-0.3-0.7-0.7-0.9-1.2c-0.1-0.2-0.2-0.4-0.3-0.6
			c-1-0.9-1.9-2-2.6-3.3c-0.3-0.6-0.8-1.1-1.2-1.6c-0.4-0.6-0.8-1.2-1.2-1.7c-0.1-0.2-0.3-0.3-0.5-0.4c-0.4-0.2-0.8-0.5-1-0.8
			c-0.2-0.3-0.5-0.5-0.8-0.7c-0.3-0.2-0.5-0.4-0.7-0.7c-0.3-0.5,0-1,0.3-1.4C618.3,989,618.8,988.7,619.5,988.8z"/>
		<path class="st0" d="M637.7,980.7c0.5,0,1,0.2,1.5,0.4c0.1,0.1,0.2,0.2,0.3,0.3c0.3,0.3,0.5,0.7,0.7,1c0.1,0.2,0.3,0.3,0.5,0.4
			c1,0.6,1.8,1.3,2.6,2.2c0.4,0.5,1,0.9,1.5,1.3c0.2,0.1,0.4,0.2,0.5,0.4c1,1.1,2.2,2,3.4,2.9c0.5,0.4,1.1,0.7,1.6,1
			c0,0,0.1,0,0.1,0.1c0.5,0.4,0.9,0.8,1.4,1.2c0.3,0.3,0.6,0.7,1,1c0.4,0.3,0.6,0.7,0.7,1.2c0.1,0.4,0.2,0.8,0.3,1.2
			c0.1,0.7-0.3,1.3-1,1.4c-0.8,0.1-1.6,0-2.3-0.4c-0.3-0.1-0.5-0.4-0.7-0.7c-0.1-0.2-0.3-0.4-0.4-0.5c-0.1-0.2-0.3-0.3-0.5-0.3
			c-0.8-0.2-1.4-0.7-1.8-1.4c0-0.1-0.1-0.2-0.2-0.3c-0.5-0.2-0.8-0.7-1.1-1.1c-0.1-0.1-0.1-0.1-0.2-0.2c-0.6-0.3-1.1-0.8-1.5-1.3
			c0,0,0-0.1-0.1-0.1c-0.7-0.3-1.1-1-1.7-1.4c-0.2-0.1-0.3-0.3-0.4-0.4c-0.4-0.3-0.7-0.7-1.1-1c-0.5-0.3-0.9-0.7-1.2-1.1
			c-0.2-0.2-0.4-0.3-0.6-0.4c-0.6-0.3-1.1-0.7-1.6-1.1c-0.2-0.2-0.5-0.3-0.7-0.4c-0.3-0.2-0.6-0.4-0.7-0.8c-0.1-0.2-0.1-0.4-0.3-0.6
			c-0.4-0.7-0.2-1.5,0.5-1.9c0.2-0.1,0.3-0.2,0.5-0.4C636.9,980.7,637.3,980.7,637.7,980.7z"/>
		<path class="st0" d="M611.2,1009.2l-0.1,0.1c0,0-0.1-0.1-0.1-0.1c0,0,0-0.1,0.1-0.1L611.2,1009.2z"/>
	</g>
</g>
</svg>
