<svg xmlns="http://www.w3.org/2000/svg" viewBox="0 0 1477.51 1477.69"><g id="Capa_2" data-name="Capa 2"><g id="Capa_1-2" data-name="Capa 1"><path d="M822.64,621.12c3.75-1.31,4.5-4.49,6.13-6.82,58-82.81,136.42-133.32,236.77-147.84,66.32-9.59,131.69-3.6,194.85,19.15,92.25,33.23,153.64,97.84,188,188.94,14.64,38.86,22.62,79.23,26.48,120.52,2.21,23.58,2.63,47.2,2.64,70.84q0,298.17,0,596.36c0,18,1.66,15.27-15.51,15.28q-136.86.15-273.71,0c-15.29,0-14.07,2.25-14.07-13.63q0-248.23,0-496.47c0-35.36-2.16-70.53-11.28-104.93a219.56,219.56,0,0,0-15.55-42c-24-48.11-63.33-74.2-116.33-79.74-25.28-2.64-50.58-1.52-75.42,4.53-53.64,13.06-90.66,45.68-112.36,96.1-11.71,27.19-17.45,55.83-19.81,85.18-1.25,15.59-1.63,31.24-1.62,46.9q.11,245.25,0,490.48c0,15.89,1.24,13.62-14.07,13.63q-132.36.11-264.71,0c-2.34,0-4.68-.16-7,0-4.55.35-6.92-1.3-6.55-6.19.2-2.65,0-5.33,0-8q0-478.5,0-957c0-15.63-1.89-13.84,13.81-13.85q132.36-.09,264.72,0c1.67,0,3.33,0,5,0,8.6.15,8.74.16,8.75,9,.06,36.63,0,73.26.06,109.88C821.84,614.6,821.19,617.92,822.64,621.12Z"/><path d="M29.47,985.15q0-239.76,0-479.53c0-14.63-1.17-13,12.65-13q139.86-.06,279.72,0c13.24,0,12.28-1.47,12.28,12.42q0,480,0,960.05c0,14.11.95,12.51-12.16,12.52q-140.36.06-280.72,0h-2c-9.68-.08-9.76-.08-9.77-9.92q0-89.4,0-178.82Z"/><path d="M360.63,181.54c.11,100.46-80.28,181.57-180.11,181.72S.09,282.36,0,181.93,80.59.08,180.12,0,360.51,81.15,360.63,181.54Z"/></g></g></svg>