<svg xmlns="http://www.w3.org/2000/svg" viewBox="0 0 16 16"><defs><style>.cls-1{fill:#fffaf0;}.cls-2{fill:#3b5227;}</style></defs><g id="Capa_2" data-name="Capa 2"><g id="Capa_1-2" data-name="Capa 1"><circle id="background" class="cls-1" cx="8" cy="8" r="8"/><path id="behance" class="cls-2" d="M5.7,4.4a2.48,2.48,0,0,1,.9.1c.2.1.5.2.7.3a1,1,0,0,1,.5.6,1.88,1.88,0,0,1,.2.8,2,2,0,0,1-.2.9c-.1.2-.5.4-.8.6a1.45,1.45,0,0,1,1,.7,2.13,2.13,0,0,1,.3,1.2,2,2,0,0,1-.2.9,1.17,1.17,0,0,1-.6.6,2,2,0,0,1-.8.4,2.77,2.77,0,0,1-.9.1H2.2V4.4ZM5.4,7.3a1.45,1.45,0,0,0,.7-.2c.2-.1.3-.3.3-.7,0-.2,0-.3-.1-.4s-.1-.2-.2-.2-.2-.1-.4-.2H3.8V7.3Zm.1,3.1h.4a.76.76,0,0,0,.4-.2l.3-.3a.75.75,0,0,0,.1-.5,1,1,0,0,0-.3-.8,1.88,1.88,0,0,0-.8-.2H3.8v2Zm4.8-.2a1.22,1.22,0,0,0,.9.3,2.35,2.35,0,0,0,.8-.2c.3-.1.3-.3.4-.5h1.3a2.84,2.84,0,0,1-.9,1.4,2.41,2.41,0,0,1-1.5.4,3.59,3.59,0,0,1-1.1-.2,1.56,1.56,0,0,1-.8-.6,1.34,1.34,0,0,1-.7-.8,3.59,3.59,0,0,1-.2-1.1,3.59,3.59,0,0,1,.2-1.1,1.46,1.46,0,0,1,.6-.9c.3-.2.5-.4.8-.6a3.59,3.59,0,0,1,1.1-.2,2.66,2.66,0,0,1,1.2.3,2.7,2.7,0,0,1,.8.7,3.13,3.13,0,0,1,.5,1,4.87,4.87,0,0,1,.1,1.2H10A1.22,1.22,0,0,0,10.3,10.2Zm1.6-2.7a1,1,0,0,0-.8-.3,1.27,1.27,0,0,0-.6.1,1.38,1.38,0,0,0-.4.3A.76.76,0,0,1,10,8v.3h2.3A1.51,1.51,0,0,0,11.9,7.5ZM9.7,4.7h2.9v.8H9.7Z"/></g></g></svg>