<svg xmlns="http://www.w3.org/2000/svg" viewBox="0 0 292.23 179.12"><defs><style>.cls-1{fill:#fff;}</style></defs><g id="Capa_2" data-name="Capa 2"><g id="Capa_1-2" data-name="Capa 1"><path class="cls-1" d="M249.16,42.56a5,5,0,0,0-3.8-1.53c-20.59.13-48.31,11.24-66.39,23.21A103.53,103.53,0,0,0,149.48,1.51a5.29,5.29,0,0,0-7.4,0c-15,15.15-26.64,41.65-30.6,63.28a104,104,0,0,0-65-23.74,5.22,5.22,0,0,0-5.28,5.2v9.63a5,5,0,0,0,0,.54C42.9,72.52,54,97.5,63.69,112.82L79.24,119c-9.27-14.3-26-48.56-27.6-63.36v-4A93.91,93.91,0,0,1,113.22,80.5c13.47,14,23.6,42.71,26.93,62.65l18,7.14c51.8-6.64,92.24-50.86,92.53-104a5.18,5.18,0,0,0-1.52-3.7Zm-129,30.15c2.67-18.17,13.51-46.22,25.66-59.95a93.52,93.52,0,0,1,23.34,64,95.16,95.16,0,0,1-19.61,56.3,105.7,105.7,0,0,0-29.38-60.35Zm91.1,41.05a95.48,95.48,0,0,1-53.87,26.14,106,106,0,0,0,22.17-65.28c15.46-10.16,43.77-22,60.57-23A94.41,94.41,0,0,1,211.22,113.76Z"/><path class="cls-1" d="M79.76,119.19l-.53-.21.41.62.1,0c0-.15,0-.3,0-.45Z"/><path class="cls-1" d="M176.6,76.62c-1.13.81,1.37.22,0,0Z"/><path class="cls-1" d="M121.16,133.37a95.63,95.63,0,0,0-105.5,9,3.46,3.46,0,0,0-.27,5.15l.28.25A94.73,94.73,0,0,0,74.92,168.6h.26a94.69,94.69,0,0,0,48.07-13.14,5.19,5.19,0,1,1,5.31,8.93A105.11,105.11,0,0,1,75.16,179H75A105.24,105.24,0,0,1,8.74,155.51a4.73,4.73,0,0,1-.4-.37l-6.81-6.8a5.17,5.17,0,0,1,0-7.37,104.54,104.54,0,0,1,62.28-29.11,100.47,100.47,0,0,1,71.29,19.88l23.17,17.6a96.1,96.1,0,0,0,117.9-1.64,3.45,3.45,0,0,0,0-5.39,93.85,93.85,0,0,0-45.57-19.89,5.19,5.19,0,1,1,1.5-10.28,104.3,104.3,0,0,1,58.55,29.17,5.19,5.19,0,0,1,0,7.38,105.36,105.36,0,0,1-74.53,30.43h0a105.31,105.31,0,0,1-74.46-30.39l0,0h0a93.69,93.69,0,0,0-20.48-15.32Z"/></g></g></svg>