<svg xmlns="http://www.w3.org/2000/svg" viewBox="0 0 16 16"><defs><style>.cls-1{fill:#fffaf0;}.cls-2{fill:#3a5126;}</style></defs><g id="Capa_2" data-name="Capa 2"><g id="Capa_1-2" data-name="Capa 1"><path class="cls-1" d="M8,0a8,8,0,1,0,8,8A8,8,0,0,0,8,0ZM5.9,11.9H4.1V6.2H5.9ZM5,5.4a1,1,0,0,1,0-2,1.08,1.08,0,0,1,1,1A.94.94,0,0,1,5,5.4Zm7.4,6.5H10.7v-3c0-.8-.3-1.3-1-1.3s-1,.5-1,1.3v3H7V6.2H8.7V7a2,2,0,0,1,1.7-1,2,2,0,0,1,2.1,2.3C12.4,8.3,12.4,11.9,12.4,11.9Z"/><rect class="cls-2" x="4.1" y="6.2" width="1.8" height="5.7"/><path class="cls-2" d="M5,5.4a1,1,0,0,1,0-2,1.08,1.08,0,0,1,1,1A.94.94,0,0,1,5,5.4Z"/><path class="cls-2" d="M12.4,11.9H10.7v-3c0-.8-.3-1.3-1-1.3s-1,.5-1,1.3v3H7V6.2H8.7V7a2,2,0,0,1,1.7-1,2,2,0,0,1,2.1,2.3C12.4,8.3,12.4,11.9,12.4,11.9Z"/></g></g></svg>